<?xml version="1.0" encoding="utf-8" ?>
<svg xmlns="http://www.w3.org/2000/svg" xmlns:xlink="http://www.w3.org/1999/xlink" width="2048" height="2048">
	<path fill="#002C33" transform="scale(2 2)" d="M503.728 76.1559C510.116 75.0549 525.133 75.5274 531.441 77.0886C539.641 79.1178 548.077 81.0865 555.973 84.0841C581.545 93.7926 601.017 112.352 615.009 135.505C619.533 142.991 622.623 151.292 627.185 158.769L627.634 159.497C642.097 155.32 658.68 145.715 673.09 140.129C683.929 143.45 697.391 151.565 707.927 156.696C723.087 164.079 738.368 171.103 753.438 178.685C759.662 181.817 767.036 184.717 772.339 189.304C773.423 202.348 772.972 215.636 772.972 228.723Q773.028 255.2 772.609 281.674C772.246 295.957 771.382 310.244 771.138 324.523Q774.445 324.504 777.747 324.34C789.297 323.795 800.224 329.234 808.603 336.932C825.831 352.758 825.291 365.099 826.144 386.978C829.43 388.297 832.303 390.181 834.968 392.49C845.378 401.51 853.091 414.192 853.911 428.141C855.251 450.936 846.311 462.831 831.905 478.842Q833.578 480.003 835.04 481.422Q836.501 482.84 837.712 484.478C841.799 489.939 843.609 495.974 842.589 502.718C841.169 512.109 838.072 521.166 835.461 530.273Q828.556 554.453 821.314 578.535L807.552 627.402C805.367 635.033 803.406 642.902 800.69 650.359C799.411 653.874 797.832 657.16 795.13 659.825C784.936 669.879 769.427 662.865 764.79 666.26C763.439 674.969 768.334 685.424 767.589 695.322C767.1 701.816 764.781 708.075 762.326 714.033C761.147 716.895 759.524 720.163 759.116 723.242C762.574 726.342 790.16 723.165 797.816 725.735C804.966 728.136 810.729 733.687 813.92 740.454C816.449 745.817 817.758 752.722 816.555 758.569C814.176 770.137 790.12 807.438 782.656 819.854C777.696 828.105 773.044 836.526 768.173 844.825C764.954 850.308 760.202 856.022 758.135 862.024C756.498 866.775 757.343 873.221 757.416 878.192C757.609 891.43 759.105 920.781 754.817 932.337C752.352 938.98 747.825 944.334 741.295 947.288C737.503 949.003 733.401 950.04 729.28 950.564C721.594 951.54 692.557 951.688 684.767 950.813C682.477 950.555 680.27 949.939 678.121 949.121C668.825 945.583 663.807 938.706 659.954 929.93L630.961 929.922C618.364 929.972 606.187 930.925 593.863 927.71L592.874 930.218C591.102 934.798 588.627 938.681 585.148 942.169C582.092 945.232 578.09 948.127 573.951 949.484C564.626 952.542 539.926 951.124 528.877 951.046C515.756 950.954 507.621 946.205 500.874 934.937C499.85 933.228 498.3 929.874 496.75 928.675C493.509 926.167 486.522 927.256 482.589 927.434Q482.3 928.441 481.949 929.429Q481.599 930.417 481.188 931.381Q480.778 932.345 480.309 933.282Q479.84 934.219 479.314 935.126Q478.788 936.032 478.207 936.905Q477.627 937.777 476.994 938.613Q476.36 939.448 475.677 940.242Q474.994 941.037 474.263 941.788C464.862 951.293 452.878 950.38 440.625 950.552C430.93 951.13 419.031 951.451 409.698 948.637C400.263 945.791 395.388 939.709 390.943 931.326C386.077 934.033 381.566 937.427 376.749 940.243C350.29 955.713 315.695 958.959 286.29 951.018C257.338 943.199 232.99 922.184 218.364 896.368C203.166 869.543 199.644 831.846 207.93 802.189C214.538 778.542 230.525 755.414 250.329 740.702C257.245 735.565 265.178 731.531 272.678 727.293C267.675 712.547 260.006 699.599 265.693 683.613C267.981 677.18 270.978 672.137 271.992 665.195C259.584 665.859 247.072 665.302 234.649 665.335C228.413 665.352 221.883 666.247 215.688 665.819Q213.642 665.694 211.63 665.302Q209.618 664.911 207.674 664.261C202.033 662.378 197.368 658.511 194.771 653.089C193.332 650.086 192.912 647.075 192.731 643.792C192.191 633.961 192.528 623.994 192.574 614.15L192.6 570.635L192.629 520.743C192.645 511.93 192.22 502.855 192.793 494.075C192.927 492.011 193.425 490.209 194.096 488.26C185.502 482.663 178.056 477.124 171.827 468.826C163.723 458.029 160.724 441.518 162.767 428.335C164.996 413.955 174.53 401.089 186.078 392.691C185.48 377.081 187.872 363.299 198.463 351.032C208.608 339.281 222.094 335.429 237.03 334.36C237.295 319.899 236.496 305.401 236.184 290.943C235.889 277.267 236.039 263.558 236.027 249.879C236.019 240.495 234.681 227.708 237.342 218.867C243.554 213.26 250.811 211.919 258.391 209.073C259.471 208.668 262.204 207.666 262.69 206.573C265.127 201.105 262.04 188.678 263.528 181.498C264.05 178.981 265.304 176.6 266.399 174.289C269.865 172.268 273.975 171.092 277.74 169.714C283.781 167.502 289.78 165.112 295.869 163.044C302.028 160.954 308.634 159.322 314.422 156.37C312.374 145.009 312.885 129.581 312.835 117.81C315.158 115.828 317.196 114.109 320.411 114.374C341.371 116.102 328.609 147.041 333.969 153.298C337.721 157.678 376.976 167.522 384.361 176.451C390.29 183.62 384.412 198.233 383.884 206.901L383.836 207.744C388.738 211.872 396.05 215.607 402.014 217.918C402.332 207.509 400.511 196.928 400.423 186.465C400.253 166.231 408.215 139.345 419.966 122.901C438.684 96.7097 472.776 81.2631 503.728 76.1559ZM516.767 218.958Q517.478 218.891 518.185 218.789Q518.891 218.686 519.592 218.55Q520.293 218.413 520.986 218.243Q521.679 218.072 522.363 217.867Q523.047 217.663 523.721 217.425Q524.394 217.187 525.055 216.917Q525.716 216.647 526.362 216.344Q527.009 216.042 527.64 215.708Q528.271 215.374 528.885 215.01Q529.499 214.645 530.095 214.252Q530.69 213.858 531.266 213.435Q531.841 213.012 532.396 212.562Q532.95 212.112 533.481 211.635Q534.012 211.158 534.52 210.656Q535.027 210.153 535.509 209.627Q535.991 209.1 536.447 208.551Q536.903 208.001 537.331 207.43Q537.76 206.858 538.159 206.267Q538.559 205.675 538.93 205.065Q539.3 204.455 539.64 203.827Q539.98 203.199 540.289 202.555Q540.598 201.912 540.875 201.253Q541.152 200.595 541.396 199.925Q541.641 199.254 541.852 198.572Q542.063 197.89 542.241 197.198Q542.419 196.507 542.562 195.807Q542.706 195.108 542.815 194.402Q542.924 193.697 542.998 192.987Q543.073 192.276 543.112 191.564Q543.152 190.851 543.156 190.137Q543.161 189.423 543.131 188.709Q543.1 187.996 543.035 187.285Q542.97 186.574 542.87 185.867Q542.77 185.16 542.635 184.459Q542.501 183.758 542.332 183.064Q542.163 182.37 541.961 181.685Q541.758 181.001 541.523 180.327Q541.287 179.653 541.018 178.991Q540.75 178.329 540.449 177.682Q540.149 177.034 539.817 176.402Q539.485 175.77 539.122 175.155Q538.76 174.54 538.367 173.943Q537.975 173.346 537.554 172.77Q537.133 172.193 536.685 171.637Q536.236 171.082 535.761 170.549Q535.285 170.016 534.784 169.508Q534.284 168.999 533.758 168.515Q533.233 168.031 532.685 167.574Q532.137 167.116 531.567 166.686Q530.997 166.256 530.406 165.855Q529.816 165.453 529.207 165.081Q528.597 164.709 527.97 164.367Q527.344 164.025 526.701 163.714Q526.058 163.404 525.401 163.125Q524.743 162.846 524.073 162.599Q523.403 162.353 522.722 162.14Q522.04 161.926 521.349 161.747Q520.658 161.567 519.959 161.422Q519.26 161.276 518.555 161.165Q517.849 161.054 517.14 160.977Q516.43 160.901 515.717 160.859Q515.004 160.817 514.29 160.811Q513.576 160.804 512.863 160.832Q512.149 160.861 511.438 160.924Q510.724 160.987 510.014 161.086Q509.305 161.184 508.6 161.318Q507.896 161.451 507.199 161.619Q506.503 161.786 505.815 161.988Q505.127 162.19 504.45 162.425Q503.773 162.66 503.109 162.929Q502.444 163.197 501.794 163.498Q501.143 163.798 500.508 164.13Q499.873 164.463 499.256 164.826Q498.638 165.189 498.038 165.582Q497.439 165.975 496.86 166.397Q496.281 166.819 495.723 167.269Q495.165 167.719 494.63 168.196Q494.095 168.672 493.584 169.175Q493.073 169.678 492.588 170.205Q492.102 170.732 491.643 171.282Q491.184 171.832 490.752 172.404Q490.321 172.977 489.918 173.569Q489.515 174.162 489.142 174.774Q488.769 175.386 488.426 176.015Q488.083 176.644 487.772 177.29Q487.461 177.935 487.182 178.596Q486.902 179.256 486.656 179.928Q486.41 180.601 486.196 181.286Q485.983 181.97 485.804 182.664Q485.625 183.358 485.48 184.06Q485.335 184.761 485.225 185.47Q485.115 186.178 485.04 186.89Q484.965 187.603 484.925 188.319Q484.885 189.034 484.88 189.751Q484.875 190.467 484.905 191.183Q484.935 191.899 485.001 192.613Q485.067 193.327 485.167 194.036Q485.268 194.746 485.403 195.45Q485.538 196.153 485.708 196.85Q485.878 197.546 486.081 198.233Q486.285 198.92 486.522 199.596Q486.76 200.273 487.03 200.936Q487.3 201.6 487.603 202.25Q487.905 202.899 488.239 203.533Q488.573 204.167 488.938 204.784Q489.303 205.401 489.698 205.999Q490.092 206.597 490.516 207.175Q490.94 207.753 491.391 208.31Q491.843 208.866 492.321 209.4Q492.8 209.934 493.304 210.443Q493.808 210.952 494.336 211.437Q494.865 211.921 495.416 212.378Q495.968 212.836 496.542 213.265Q497.115 213.695 497.709 214.096Q498.303 214.497 498.916 214.869Q499.529 215.24 500.159 215.581Q500.789 215.922 501.436 216.231Q502.082 216.541 502.743 216.818Q503.404 217.096 504.078 217.34Q504.751 217.585 505.436 217.796Q506.121 218.007 506.815 218.184Q507.51 218.361 508.212 218.504Q508.914 218.646 509.623 218.755Q510.331 218.863 511.044 218.936Q511.757 219.009 512.473 219.047Q513.188 219.085 513.905 219.088Q514.622 219.091 515.338 219.058Q516.054 219.026 516.767 218.958Z"/>
	<path fill="#FAB81C" transform="scale(2 2)" d="M487.06 272.841L486.195 273.072C479.297 274.866 472.861 278.424 466.176 280.9C463.999 281.706 460.603 283.018 458.414 281.914C455.394 280.39 452.804 276.607 450.772 273.976Q448.676 271.284 446.698 268.505Q444.719 265.726 442.862 262.864Q441.004 260.003 439.271 257.065Q437.537 254.127 435.931 251.117Q434.325 248.107 432.849 245.031Q431.374 241.955 430.031 238.819Q428.689 235.683 427.481 232.492Q426.274 229.302 425.205 226.062C416.428 200.318 415.411 173.007 427.809 148.196C439.164 125.473 457.342 108.752 481.695 100.812C504.88 93.2536 533.036 92.8521 555.173 104.133C580.021 116.795 601.451 141.531 610.051 168.064C604.532 172.181 583.033 179.688 581.071 182.195C580.51 193.63 581.836 261.183 580.003 266.216C577.251 273.775 563.627 286.98 557.228 292.814C556.474 293.502 555.714 294.177 554.902 294.797C549.48 292.753 543.668 291.14 538.389 288.805C521.3 283.452 503.671 279.632 487.06 272.841ZM516.767 218.958Q517.478 218.891 518.185 218.789Q518.891 218.686 519.592 218.55Q520.293 218.413 520.986 218.243Q521.679 218.072 522.363 217.867Q523.047 217.663 523.721 217.425Q524.394 217.187 525.055 216.917Q525.716 216.647 526.362 216.344Q527.009 216.042 527.64 215.708Q528.271 215.374 528.885 215.01Q529.499 214.645 530.095 214.252Q530.69 213.858 531.266 213.435Q531.841 213.012 532.396 212.562Q532.95 212.112 533.481 211.635Q534.012 211.158 534.52 210.656Q535.027 210.153 535.509 209.627Q535.991 209.1 536.447 208.551Q536.903 208.001 537.331 207.43Q537.76 206.858 538.159 206.267Q538.559 205.675 538.93 205.065Q539.3 204.455 539.64 203.827Q539.98 203.199 540.289 202.555Q540.598 201.912 540.875 201.253Q541.152 200.595 541.396 199.925Q541.641 199.254 541.852 198.572Q542.063 197.89 542.241 197.198Q542.419 196.507 542.562 195.807Q542.706 195.108 542.815 194.402Q542.924 193.697 542.998 192.987Q543.073 192.276 543.112 191.564Q543.152 190.851 543.156 190.137Q543.161 189.423 543.131 188.709Q543.1 187.996 543.035 187.285Q542.97 186.574 542.87 185.867Q542.77 185.16 542.635 184.459Q542.501 183.758 542.332 183.064Q542.163 182.37 541.961 181.685Q541.758 181.001 541.523 180.327Q541.287 179.653 541.018 178.991Q540.75 178.329 540.449 177.682Q540.149 177.034 539.817 176.402Q539.485 175.77 539.122 175.155Q538.76 174.54 538.367 173.943Q537.975 173.346 537.554 172.77Q537.133 172.193 536.685 171.637Q536.236 171.082 535.761 170.549Q535.285 170.016 534.784 169.508Q534.284 168.999 533.758 168.515Q533.233 168.031 532.685 167.574Q532.137 167.116 531.567 166.686Q530.997 166.256 530.406 165.855Q529.816 165.453 529.207 165.081Q528.597 164.709 527.97 164.367Q527.344 164.025 526.701 163.714Q526.058 163.404 525.401 163.125Q524.743 162.846 524.073 162.599Q523.403 162.353 522.722 162.14Q522.04 161.926 521.349 161.747Q520.658 161.567 519.959 161.422Q519.26 161.276 518.555 161.165Q517.849 161.054 517.14 160.977Q516.43 160.901 515.717 160.859Q515.004 160.817 514.29 160.811Q513.576 160.804 512.863 160.832Q512.149 160.861 511.438 160.924Q510.724 160.987 510.014 161.086Q509.305 161.184 508.6 161.318Q507.896 161.451 507.199 161.619Q506.503 161.786 505.815 161.988Q505.127 162.19 504.45 162.425Q503.773 162.66 503.109 162.929Q502.444 163.197 501.794 163.498Q501.143 163.798 500.508 164.13Q499.873 164.463 499.256 164.826Q498.638 165.189 498.038 165.582Q497.439 165.975 496.86 166.397Q496.281 166.819 495.723 167.269Q495.165 167.719 494.63 168.196Q494.095 168.672 493.584 169.175Q493.073 169.678 492.588 170.205Q492.102 170.732 491.643 171.282Q491.184 171.832 490.752 172.404Q490.321 172.977 489.918 173.569Q489.515 174.162 489.142 174.774Q488.769 175.386 488.426 176.015Q488.083 176.644 487.772 177.29Q487.461 177.935 487.182 178.596Q486.902 179.256 486.656 179.928Q486.41 180.601 486.196 181.286Q485.983 181.97 485.804 182.664Q485.625 183.358 485.48 184.06Q485.335 184.761 485.225 185.47Q485.115 186.178 485.04 186.89Q484.965 187.603 484.925 188.319Q484.885 189.034 484.88 189.751Q484.875 190.467 484.905 191.183Q484.935 191.899 485.001 192.613Q485.067 193.327 485.167 194.036Q485.268 194.746 485.403 195.45Q485.538 196.153 485.708 196.85Q485.878 197.546 486.081 198.233Q486.285 198.92 486.522 199.596Q486.76 200.273 487.03 200.936Q487.3 201.6 487.603 202.25Q487.905 202.899 488.239 203.533Q488.573 204.167 488.938 204.784Q489.303 205.401 489.698 205.999Q490.092 206.597 490.516 207.175Q490.94 207.753 491.391 208.31Q491.843 208.866 492.321 209.4Q492.8 209.934 493.304 210.443Q493.808 210.952 494.336 211.437Q494.865 211.921 495.416 212.378Q495.968 212.836 496.542 213.265Q497.115 213.695 497.709 214.096Q498.303 214.497 498.916 214.869Q499.529 215.24 500.159 215.581Q500.789 215.922 501.436 216.231Q502.082 216.541 502.743 216.818Q503.404 217.096 504.078 217.34Q504.751 217.585 505.436 217.796Q506.121 218.007 506.815 218.184Q507.51 218.361 508.212 218.504Q508.914 218.646 509.623 218.755Q510.331 218.863 511.044 218.936Q511.757 219.009 512.473 219.047Q513.188 219.085 513.905 219.088Q514.622 219.091 515.338 219.058Q516.054 219.026 516.767 218.958Z"/>
	<path fill="#D7911E" transform="scale(2 2)" d="M581.071 182.195C580.51 193.63 581.836 261.183 580.003 266.216C577.251 273.775 563.627 286.98 557.228 292.814C556.474 293.502 555.714 294.177 554.902 294.797C549.48 292.753 543.668 291.14 538.389 288.805C538.704 288.693 539.005 288.525 539.335 288.469C539.936 288.369 540.555 288.555 541.162 288.508C542.416 288.412 543.449 287.852 544.133 286.798C546.069 283.817 547.049 279.136 548.168 275.734C550.145 269.721 552.872 263.857 554.571 257.776C556.08 252.375 556.711 246.735 558.18 241.305C560.038 234.44 562.477 227.74 564.194 220.833C565.852 214.162 566.404 207.116 568.906 200.675C571.648 193.616 575.79 187.56 581.071 182.195Z"/>
	<path fill="#002C33" transform="scale(2 2)" d="M520.857 235.573C513.381 237.312 503.815 236.333 496.639 233.677C484.466 229.17 474.975 217.932 469.772 206.276C465.854 197.499 464.649 187.86 468.212 178.768C474.255 163.345 484.851 151.965 499.986 145.367C510.863 140.626 522.139 141.573 532.983 145.853C544.469 150.386 552.2 157.99 557.082 169.311C558.506 168.581 558.628 168.228 560.206 168.73C563.846 172.176 565.607 179.947 565.766 184.777C566.187 197.599 562.961 215.732 553.847 225.253C549.205 230.102 544.059 231.707 538.3 234.652C533.854 236.927 530.205 239.637 524.978 239.831C524.007 239.868 522.734 239.694 521.976 239.024C520.751 237.94 520.939 237.046 520.857 235.573ZM516.767 218.958Q517.478 218.891 518.185 218.789Q518.891 218.686 519.592 218.55Q520.293 218.413 520.986 218.243Q521.679 218.072 522.363 217.867Q523.047 217.663 523.721 217.425Q524.394 217.187 525.055 216.917Q525.716 216.647 526.362 216.344Q527.009 216.042 527.64 215.708Q528.271 215.374 528.885 215.01Q529.499 214.645 530.095 214.252Q530.69 213.858 531.266 213.435Q531.841 213.012 532.396 212.562Q532.95 212.112 533.481 211.635Q534.012 211.158 534.52 210.656Q535.027 210.153 535.509 209.627Q535.991 209.1 536.447 208.551Q536.903 208.001 537.331 207.43Q537.76 206.858 538.159 206.267Q538.559 205.675 538.93 205.065Q539.3 204.455 539.64 203.827Q539.98 203.199 540.289 202.555Q540.598 201.912 540.875 201.253Q541.152 200.595 541.396 199.925Q541.641 199.254 541.852 198.572Q542.063 197.89 542.241 197.198Q542.419 196.507 542.562 195.807Q542.706 195.108 542.815 194.402Q542.924 193.697 542.998 192.987Q543.073 192.276 543.112 191.564Q543.152 190.851 543.156 190.137Q543.161 189.423 543.131 188.709Q543.1 187.996 543.035 187.285Q542.97 186.574 542.87 185.867Q542.77 185.16 542.635 184.459Q542.501 183.758 542.332 183.064Q542.163 182.37 541.961 181.685Q541.758 181.001 541.523 180.327Q541.287 179.653 541.018 178.991Q540.75 178.329 540.449 177.682Q540.149 177.034 539.817 176.402Q539.485 175.77 539.122 175.155Q538.76 174.54 538.367 173.943Q537.975 173.346 537.554 172.77Q537.133 172.193 536.685 171.637Q536.236 171.082 535.761 170.549Q535.285 170.016 534.784 169.508Q534.284 168.999 533.758 168.515Q533.233 168.031 532.685 167.574Q532.137 167.116 531.567 166.686Q530.997 166.256 530.406 165.855Q529.816 165.453 529.207 165.081Q528.597 164.709 527.97 164.367Q527.344 164.025 526.701 163.714Q526.058 163.404 525.401 163.125Q524.743 162.846 524.073 162.599Q523.403 162.353 522.722 162.14Q522.04 161.926 521.349 161.747Q520.658 161.567 519.959 161.422Q519.26 161.276 518.555 161.165Q517.849 161.054 517.14 160.977Q516.43 160.901 515.717 160.859Q515.004 160.817 514.29 160.811Q513.576 160.804 512.863 160.832Q512.149 160.861 511.438 160.924Q510.724 160.987 510.014 161.086Q509.305 161.184 508.6 161.318Q507.896 161.451 507.199 161.619Q506.503 161.786 505.815 161.988Q505.127 162.19 504.45 162.425Q503.773 162.66 503.109 162.929Q502.444 163.197 501.794 163.498Q501.143 163.798 500.508 164.13Q499.873 164.463 499.256 164.826Q498.638 165.189 498.038 165.582Q497.439 165.975 496.86 166.397Q496.281 166.819 495.723 167.269Q495.165 167.719 494.63 168.196Q494.095 168.672 493.584 169.175Q493.073 169.678 492.588 170.205Q492.102 170.732 491.643 171.282Q491.184 171.832 490.752 172.404Q490.321 172.977 489.918 173.569Q489.515 174.162 489.142 174.774Q488.769 175.386 488.426 176.015Q488.083 176.644 487.772 177.29Q487.461 177.935 487.182 178.596Q486.902 179.256 486.656 179.928Q486.41 180.601 486.196 181.286Q485.983 181.97 485.804 182.664Q485.625 183.358 485.48 184.06Q485.335 184.761 485.225 185.47Q485.115 186.178 485.04 186.89Q484.965 187.603 484.925 188.319Q484.885 189.034 484.88 189.751Q484.875 190.467 484.905 191.183Q484.935 191.899 485.001 192.613Q485.067 193.327 485.167 194.036Q485.268 194.746 485.403 195.45Q485.538 196.153 485.708 196.85Q485.878 197.546 486.081 198.233Q486.285 198.92 486.522 199.596Q486.76 200.273 487.03 200.936Q487.3 201.6 487.603 202.25Q487.905 202.899 488.239 203.533Q488.573 204.167 488.938 204.784Q489.303 205.401 489.698 205.999Q490.092 206.597 490.516 207.175Q490.94 207.753 491.391 208.31Q491.843 208.866 492.321 209.4Q492.8 209.934 493.304 210.443Q493.808 210.952 494.336 211.437Q494.865 211.921 495.416 212.378Q495.968 212.836 496.542 213.265Q497.115 213.695 497.709 214.096Q498.303 214.497 498.916 214.869Q499.529 215.24 500.159 215.581Q500.789 215.922 501.436 216.231Q502.082 216.541 502.743 216.818Q503.404 217.096 504.078 217.34Q504.751 217.585 505.436 217.796Q506.121 218.007 506.815 218.184Q507.51 218.361 508.212 218.504Q508.914 218.646 509.623 218.755Q510.331 218.863 511.044 218.936Q511.757 219.009 512.473 219.047Q513.188 219.085 513.905 219.088Q514.622 219.091 515.338 219.058Q516.054 219.026 516.767 218.958Z"/>
	<path fill="#FDCB42" transform="scale(2 2)" d="M557.082 169.311C558.506 168.581 558.628 168.228 560.206 168.73C563.846 172.176 565.607 179.947 565.766 184.777C566.187 197.599 562.961 215.732 553.847 225.253C549.205 230.102 544.059 231.707 538.3 234.652C533.854 236.927 530.205 239.637 524.978 239.831C524.007 239.868 522.734 239.694 521.976 239.024C520.751 237.94 520.939 237.046 520.857 235.573C524.397 234.65 527.974 233.694 531.386 232.363C542.672 227.963 552.841 217.452 557.677 206.433C563.081 194.122 561.878 181.497 557.082 169.311Z"/>
	<path fill="#D44227" transform="scale(2 2)" d="M688.462 168.383C691.235 169.439 693.999 171.094 696.686 172.391C705.809 176.794 714.701 181.602 723.774 186.088C732.699 190.502 742.23 193.801 751.004 198.523C752.53 199.345 753.771 200.321 755.034 201.5C754.609 213.316 753.966 225.212 753.832 237.027C753.55 261.842 754.264 286.685 754.316 311.5L754.208 378.91L754.089 431.528C754.037 445.663 754.351 461.435 752.474 475.448C741.724 475.743 695.443 476.691 687.198 474.385C686.944 474.026 687.012 474.193 686.919 473.656C685.77 467.063 686.598 450.998 686.542 443.443C686.307 411.56 686.866 379.823 687.294 347.949C688.069 290.308 686.089 232.599 687.044 174.969C687.087 172.398 687.02 170.581 688.462 168.383Z"/>
	<path fill="#002C33" transform="scale(2 2)" d="M729.461 214.42C729.404 212.478 729.138 211.318 730.038 209.571C731.786 208.872 732.879 208.974 734.608 209.711C737.444 210.92 740.224 212.934 742.834 214.574C743.106 216.488 743.722 218.775 743.094 220.639C741.808 221.28 741.069 220.991 739.743 220.543Q738.991 220.282 738.245 220.003C738.244 222.55 738.892 228.307 737.702 230.373Q737.324 241.731 737.831 253.084Q733.495 251.039 729.099 249.128C729.464 237.56 729.026 225.991 729.461 214.42Z"/>
	<path fill="#B3381E" transform="scale(2 2)" d="M729.461 214.42C729.404 212.478 729.138 211.318 730.038 209.571C731.786 208.872 732.879 208.974 734.608 209.711C737.444 210.92 740.224 212.934 742.834 214.574C743.106 216.488 743.722 218.775 743.094 220.639C741.808 221.28 741.069 220.991 739.743 220.543Q738.991 220.282 738.245 220.003C738.244 222.55 738.892 228.307 737.702 230.373C737.709 226.643 737.676 222.933 737.502 219.207C735.024 217.127 732.369 215.763 729.461 214.42Z"/>
	<path fill="#002C33" transform="scale(2 2)" d="M702.295 418.765C705.19 419.722 712.962 421.551 714.143 424.773C714.883 426.792 713.304 430.209 712.246 431.89C711.33 433.346 711.477 435.457 711.429 437.132C711.332 445.424 711.462 453.729 711.496 462.023C708.143 461.101 705.047 459.813 701.86 458.435C702.152 448.925 702.519 439.447 702.55 429.93L702.295 418.765Z"/>
	<path fill="#B3381E" transform="scale(2 2)" d="M702.295 418.765C705.19 419.722 712.962 421.551 714.143 424.773C714.883 426.792 713.304 430.209 712.246 431.89C711.33 433.346 711.477 435.457 711.429 437.132C711.058 434.834 711.169 432.347 711.104 430.017C709.142 428.802 706.61 426.699 704.263 426.814C702.793 427.749 702.965 428.287 702.55 429.93L702.295 418.765Z"/>
	<path fill="#002C33" transform="scale(2 2)" d="M729.422 372.601C733.002 373.815 740.272 375.479 742.311 378.93C742.683 379.558 742.552 379.914 742.524 380.602C741.355 381.955 739.478 381.977 738.485 382.99C737.405 384.09 738.783 409.837 737.846 413.939C735.007 412.848 732.103 411.946 729.208 411.014C729.662 400.891 729.698 390.568 729.476 380.437L729.422 372.601Z"/>
	<path fill="#B3381E" transform="scale(2 2)" d="M729.422 372.601C733.002 373.815 740.272 375.479 742.311 378.93C742.683 379.558 742.552 379.914 742.524 380.602C741.355 381.955 739.478 381.977 738.485 382.99C737.405 384.09 738.783 409.837 737.846 413.939C737.119 403.736 737.641 393.184 737.645 382.946C735.567 381.749 732.758 379.618 730.316 379.591L729.476 380.437L729.422 372.601Z"/>
	<path fill="#002C33" transform="scale(2 2)" d="M729.499 315.86C733.259 317.1 740.818 320.594 742.822 324.178C743.114 324.701 743.163 325.125 743.275 325.683C742.576 326.843 742.112 327.091 740.765 327.363C739.811 327.555 738.776 327.517 737.813 327.465C738.101 337.537 737.375 347.649 738.579 357.682C735.751 356.323 732.967 355.212 729.99 354.223C729.995 345.187 729.603 336.158 729.521 327.123C729.316 323.373 729.435 319.613 729.499 315.86Z"/>
	<path fill="#B3381E" transform="scale(2 2)" d="M729.499 315.86C733.259 317.1 740.818 320.594 742.822 324.178C743.114 324.701 743.163 325.125 743.275 325.683C742.576 326.843 742.112 327.091 740.765 327.363C739.811 327.555 738.776 327.517 737.813 327.465C736.471 326.297 734.352 324.83 732.691 324.179C731.569 323.74 730.994 323.919 729.984 324.456L729.521 327.123C729.316 323.373 729.435 319.613 729.499 315.86Z"/>
	<path fill="#002C33" transform="scale(2 2)" d="M702.397 363.318C705.821 364.717 713.184 367.112 715.181 370.218C715.881 371.305 715.944 371.542 715.661 372.709C714.105 373.913 713.15 373.042 711.314 373.307C711.157 373.33 711.003 373.376 710.848 373.411L711.193 406.063C708.285 404.988 705.418 403.905 702.598 402.612C702.716 393.281 703.752 383.667 703.288 374.372C702.143 372.638 702.523 365.614 702.397 363.318Z"/>
	<path fill="#B3381E" transform="scale(2 2)" d="M702.397 363.318C705.821 364.717 713.184 367.112 715.181 370.218C715.881 371.305 715.944 371.542 715.661 372.709C714.105 373.913 713.15 373.042 711.314 373.307C711.157 373.33 711.003 373.376 710.848 373.411C708.957 372.35 706.343 370.374 704.147 370.534C703.13 371.468 703.359 371.645 703.3 372.997C703.28 373.455 703.286 373.914 703.288 374.372C702.143 372.638 702.523 365.614 702.397 363.318Z"/>
	<path fill="#002C33" transform="scale(2 2)" d="M729.92 427.819C733.01 428.468 740.501 429.035 742.407 431.496C742.588 433.465 741.959 434.524 740.726 436.032C739.932 437.004 739.217 437.621 738.16 438.28L737.744 439.758C736.557 448.363 737.509 458.217 737.612 466.923C734.857 466.069 732.169 465.015 729.472 463.997C729.358 453.975 729.473 443.936 729.499 433.912C729.52 431.842 729.61 429.867 729.92 427.819Z"/>
	<path fill="#B3381E" transform="scale(2 2)" d="M729.92 427.819C733.01 428.468 740.501 429.035 742.407 431.496C742.588 433.465 741.959 434.524 740.726 436.032C739.932 437.004 739.217 437.621 738.16 438.28L737.744 439.758C737.699 439.159 737.682 438.431 737.366 437.899C736.074 435.725 731.764 434.711 729.499 433.912C729.52 431.842 729.61 429.867 729.92 427.819Z"/>
	<path fill="#002C33" transform="scale(2 2)" d="M704.175 315.89C703.622 313.82 702.442 310.262 703.085 308.223C704.044 307.403 704.532 307.198 705.826 307.374C708.573 307.748 713.054 310.287 714.614 312.604C715.018 313.204 714.934 314.106 714.767 314.781C714.483 315.928 713.077 316.932 712.207 317.664C711.162 320.083 711.788 323.134 711.417 325.739C710.709 333.638 711.525 342.278 711.656 350.233C709.795 349.613 707.272 349.007 705.77 347.721C705.621 347.593 704.752 346.667 704.632 346.377C703.052 342.56 704.671 322.56 704.231 316.607L704.175 315.89Z"/>
	<path fill="#B3381E" transform="scale(2 2)" d="M704.175 315.89C703.622 313.82 702.442 310.262 703.085 308.223C704.044 307.403 704.532 307.198 705.826 307.374C708.573 307.748 713.054 310.287 714.614 312.604C715.018 313.204 714.934 314.106 714.767 314.781C714.483 315.928 713.077 316.932 712.207 317.664C711.162 320.083 711.788 323.134 711.417 325.739C711.086 323.174 711.184 320.469 711.121 317.88C709.247 316.641 706.703 314.521 704.421 314.807L704.175 315.89Z"/>
	<path fill="#002C33" transform="scale(2 2)" d="M730.064 271.202C733.027 272.294 735.321 273.711 737.723 275.764C738.013 284.96 737.642 294.19 737.92 303.404C735.045 302.424 732.186 300.8 729.432 299.491Q729.914 285.35 730.064 271.202Z"/>
	<path fill="#002C33" transform="scale(2 2)" d="M704.973 204.916C706.99 206.108 710.533 207.585 711.288 209.88C709.901 218.574 711.021 232.291 711.126 241.511C708.805 240.615 706.633 239.433 704.43 238.286Q704.925 221.605 704.973 204.916Z"/>
	<path fill="#002C33" transform="scale(2 2)" d="M704.97 262.077C707.285 262.586 709.079 263.535 711.125 264.666C710.533 274.737 710.823 285.304 711.321 295.384C708.885 294.453 706.57 293.283 704.229 292.137C704.959 282.222 705.057 272.017 704.97 262.077Z"/>
	<path fill="#B3381E" transform="scale(2 2)" d="M704.605 198.056C707.159 198.797 712.345 199.73 713.589 202.229C714.282 203.621 713.809 205.112 713.169 206.405C712.8 207.15 712.349 207.837 711.912 208.542C711.505 209.197 711.65 208.969 711.288 209.88C710.533 207.585 706.99 206.108 704.973 204.916C704.466 202.634 704.579 200.378 704.605 198.056Z"/>
	<path fill="#B3381E" transform="scale(2 2)" d="M704.97 262.077C704.424 260.304 703.494 258.366 703.713 256.498C704.332 255.905 704.264 255.687 705.189 255.728C707.85 255.844 711.16 258.32 713.423 259.691C712.701 261.319 712.063 263.159 711.125 264.666C709.079 263.535 707.285 262.586 704.97 262.077Z"/>
	<path fill="#FEF4D7" transform="scale(2 2)" d="M619.563 500.19C627.112 500.171 647.691 499.183 653.87 500.496C655.465 501.506 656.36 503.814 656.967 505.532C659.032 511.375 660.059 517.872 661.446 523.927C665.845 543.131 669.473 565.7 675.398 584.087C682.203 564.192 687.499 543.762 693.796 523.692C696.055 516.494 697.676 507.18 701.948 501.03C705.537 498.968 724.379 500.195 729.043 500.582C731.237 508.591 734.581 516.309 737.183 524.197L756.063 582.764C757.426 574.569 772.725 503.654 775.645 501.297C781.334 499.469 808.665 499.302 814.145 501.064C815.371 501.458 814.94 501.14 815.558 502.271C815.455 507.687 808.185 531.335 806.25 537.862Q792.764 588.143 777.753 637.99C769.62 637.983 742.246 639.192 736.581 637.363C734.911 635.761 734.094 633.805 733.336 631.642C730.882 624.639 729.426 617.032 727.536 609.841L716.279 567.427C712.668 577.061 710.157 587.301 707.223 597.18Q701.21 617.773 694.104 638.016L652.676 637.984C649.816 631.305 648.416 623.205 646.547 616.166L635.801 575.937Q630.87 556.66 625.565 537.483C622.604 527.12 619.245 516.859 616.635 506.397C616.219 504.73 615.998 503.721 616.575 502.038C617.564 500.891 618.179 500.66 619.563 500.19Z"/>
	<path fill="#FEF4D7" transform="scale(2 2)" d="M540.49 496.973Q542.267 496.775 544.051 496.665Q545.836 496.554 547.624 496.531Q549.412 496.509 551.198 496.573Q552.985 496.638 554.767 496.79Q556.548 496.942 558.32 497.182Q560.092 497.421 561.85 497.747Q563.608 498.072 565.348 498.484Q567.087 498.895 568.805 499.392Q570.523 499.888 572.214 500.468Q573.906 501.048 575.566 501.71Q577.227 502.371 578.854 503.114Q580.48 503.857 582.068 504.678Q583.656 505.499 585.202 506.397Q586.748 507.296 588.248 508.268Q589.749 509.241 591.199 510.286Q592.65 511.331 594.048 512.446Q595.445 513.561 596.787 514.743Q598.128 515.925 599.41 517.172Q600.692 518.418 601.911 519.726Q603.13 521.033 604.284 522.399Q605.438 523.765 606.523 525.186Q607.609 526.607 608.624 528.079Q609.638 529.551 610.579 531.071Q611.521 532.591 612.386 534.156Q613.252 535.72 614.04 537.325Q614.828 538.93 615.536 540.572Q616.245 542.213 616.872 543.887Q617.499 545.562 618.043 547.265Q618.587 548.968 619.048 550.696Q619.508 552.423 619.883 554.172Q620.258 555.92 620.547 557.684Q620.836 559.448 621.038 561.225Q621.24 563.001 621.355 564.786Q621.47 566.57 621.497 568.358Q621.525 570.145 621.464 571.932Q621.404 573.719 621.256 575.501Q621.108 577.283 620.874 579.055Q620.639 580.828 620.317 582.586Q619.996 584.345 619.589 586.086Q619.182 587.827 618.69 589.546Q618.198 591.265 617.622 592.958Q617.046 594.65 616.388 596.313Q615.731 597.975 614.992 599.604Q614.254 601.232 613.436 602.822Q612.619 604.412 611.724 605.96Q610.83 607.509 609.861 609.011Q608.892 610.514 607.85 611.967Q606.809 613.42 605.698 614.821Q604.586 616.221 603.407 617.565Q602.229 618.91 600.985 620.195Q599.742 621.48 598.437 622.702Q597.133 623.925 595.77 625.082Q594.407 626.239 592.989 627.328Q591.571 628.417 590.101 629.435Q588.632 630.454 587.114 631.399Q585.596 632.344 584.034 633.213Q582.471 634.083 580.868 634.875Q579.266 635.666 577.626 636.379Q575.986 637.091 574.313 637.723Q572.64 638.354 570.939 638.902Q569.237 639.451 567.51 639.915Q565.784 640.38 564.036 640.759Q562.289 641.139 560.526 641.432Q558.762 641.725 556.986 641.932Q555.204 642.139 553.415 642.259Q551.625 642.378 549.832 642.409Q548.039 642.441 546.246 642.384Q544.453 642.327 542.666 642.182Q540.878 642.037 539.099 641.805Q537.321 641.572 535.556 641.252Q533.791 640.933 532.044 640.527Q530.297 640.121 528.572 639.629Q526.847 639.138 525.148 638.562Q523.45 637.987 521.781 637.328Q520.113 636.67 518.479 635.93Q516.845 635.191 515.249 634.372Q513.653 633.553 512.1 632.656Q510.546 631.76 509.039 630.788Q507.531 629.817 506.073 628.772Q504.615 627.727 503.21 626.612Q501.805 625.497 500.457 624.315Q499.108 623.132 497.82 621.885Q496.531 620.637 495.305 619.328Q494.08 618.018 492.92 616.65Q491.76 615.282 490.668 613.859Q489.577 612.436 488.557 610.96Q487.537 609.485 486.59 607.961Q485.644 606.438 484.774 604.87Q483.903 603.301 483.111 601.692Q482.319 600.083 481.607 598.437Q480.895 596.791 480.264 595.111Q479.634 593.432 479.087 591.724Q478.54 590.016 478.077 588.283Q477.615 586.55 477.238 584.797Q476.861 583.043 476.571 581.273Q476.281 579.503 476.078 577.721Q475.875 575.939 475.76 574.149Q475.645 572.359 475.618 570.566Q475.592 568.772 475.653 566.98Q475.714 565.187 475.864 563.4Q476.013 561.613 476.25 559.835Q476.487 558.057 476.811 556.293Q477.135 554.529 477.545 552.783Q477.956 551.037 478.452 549.313Q478.947 547.589 479.527 545.892Q480.107 544.195 480.769 542.528Q481.432 540.861 482.176 539.229Q482.919 537.597 483.742 536.003Q484.565 534.409 485.465 532.858Q486.366 531.307 487.341 529.802Q488.316 528.297 489.365 526.841Q490.413 525.386 491.531 523.984Q492.65 522.581 493.836 521.236Q495.022 519.891 496.273 518.605Q497.523 517.319 498.836 516.097Q500.148 514.874 501.519 513.718Q502.89 512.561 504.316 511.473Q505.742 510.386 507.22 509.369Q508.698 508.353 510.224 507.41Q511.75 506.468 513.32 505.601Q514.89 504.735 516.502 503.947Q518.113 503.158 519.761 502.45Q521.409 501.742 523.089 501.116Q524.77 500.49 526.479 499.947Q528.189 499.404 529.923 498.946Q531.657 498.488 533.412 498.115Q535.166 497.743 536.937 497.457Q538.707 497.171 540.49 496.973Z"/>
	<path fill="#002C33" transform="scale(2 2)" d="M545.489 534.074Q546.366 533.99 547.247 533.95Q548.127 533.909 549.009 533.912Q549.89 533.915 550.77 533.961Q551.65 534.007 552.527 534.096Q553.404 534.185 554.276 534.317Q555.147 534.449 556.011 534.623Q556.875 534.798 557.729 535.015Q558.583 535.232 559.426 535.49Q560.269 535.748 561.098 536.048Q561.926 536.347 562.74 536.687Q563.553 537.027 564.348 537.406Q565.144 537.785 565.92 538.203Q566.696 538.621 567.451 539.076Q568.205 539.532 568.937 540.024Q569.668 540.516 570.374 541.043Q571.081 541.57 571.76 542.131Q572.44 542.692 573.091 543.286Q573.742 543.88 574.364 544.505Q574.985 545.13 575.575 545.785Q576.165 546.44 576.722 547.123Q577.279 547.806 577.802 548.515Q578.325 549.225 578.812 549.959Q579.3 550.693 579.751 551.451Q580.201 552.208 580.615 552.987Q581.028 553.765 581.402 554.563Q581.777 555.361 582.111 556.176Q582.446 556.991 582.741 557.822Q583.035 558.653 583.288 559.497Q583.542 560.341 583.753 561.197Q583.965 562.052 584.134 562.917Q584.304 563.782 584.43 564.654Q584.557 565.527 584.641 566.404Q584.725 567.281 584.765 568.162Q584.806 569.042 584.803 569.924Q584.801 570.805 584.755 571.685Q584.709 572.565 584.62 573.442Q584.531 574.319 584.399 575.19Q584.268 576.062 584.093 576.926Q583.919 577.79 583.702 578.644Q583.485 579.498 583.227 580.341Q582.969 581.184 582.669 582.013Q582.37 582.842 582.03 583.655Q581.691 584.468 581.311 585.264Q580.932 586.06 580.515 586.836Q580.097 587.612 579.641 588.366Q579.186 589.121 578.694 589.852Q578.203 590.584 577.675 591.29Q577.148 591.997 576.587 592.676Q576.026 593.356 575.432 594.007Q574.839 594.659 574.214 595.28Q573.589 595.901 572.934 596.491Q572.279 597.081 571.596 597.639Q570.913 598.196 570.204 598.719Q569.494 599.242 568.76 599.729Q568.026 600.217 567.269 600.668Q566.511 601.119 565.733 601.532Q564.954 601.945 564.157 602.32Q563.359 602.694 562.544 603.029Q561.728 603.364 560.898 603.659Q560.067 603.953 559.223 604.207Q558.379 604.46 557.523 604.672Q556.668 604.884 555.803 605.053Q554.938 605.223 554.066 605.349Q553.193 605.476 552.316 605.56Q551.438 605.644 550.558 605.685Q549.677 605.725 548.796 605.723Q547.914 605.72 547.034 605.675Q546.154 605.629 545.277 605.54Q544.4 605.451 543.528 605.319Q542.657 605.187 541.793 605.013Q540.929 604.838 540.074 604.622Q539.22 604.405 538.377 604.147Q537.534 603.888 536.705 603.589Q535.876 603.29 535.062 602.95Q534.249 602.61 533.453 602.231Q532.658 601.852 531.881 601.434Q531.105 601.016 530.35 600.561Q529.596 600.106 528.864 599.614Q528.133 599.122 527.426 598.595Q526.72 598.068 526.04 597.506Q525.36 596.945 524.709 596.351Q524.057 595.757 523.436 595.132Q522.814 594.507 522.224 593.852Q521.634 593.197 521.077 592.514Q520.52 591.831 519.997 591.122Q519.474 590.412 518.986 589.678Q518.499 588.943 518.048 588.186Q517.597 587.429 517.183 586.65Q516.77 585.872 516.396 585.074Q516.021 584.276 515.686 583.46Q515.351 582.645 515.057 581.814Q514.762 580.983 514.509 580.139Q514.255 579.295 514.044 578.439Q513.832 577.583 513.663 576.718Q513.493 575.853 513.367 574.981Q513.24 574.109 513.156 573.231Q513.072 572.354 513.032 571.473Q512.991 570.593 512.994 569.711Q512.996 568.83 513.042 567.949Q513.088 567.069 513.177 566.192Q513.266 565.315 513.398 564.443Q513.53 563.572 513.704 562.708Q513.879 561.844 514.096 560.989Q514.312 560.135 514.571 559.292Q514.829 558.449 515.129 557.62Q515.428 556.791 515.768 555.978Q516.108 555.164 516.487 554.369Q516.866 553.573 517.284 552.797Q517.702 552.021 518.157 551.266Q518.613 550.511 519.105 549.78Q519.597 549.048 520.124 548.342Q520.651 547.635 521.212 546.956Q521.773 546.276 522.367 545.625Q522.961 544.973 523.587 544.352Q524.212 543.73 524.867 543.14Q525.522 542.55 526.205 541.993Q526.888 541.436 527.597 540.913Q528.307 540.39 529.041 539.903Q529.776 539.415 530.533 538.964Q531.291 538.513 532.069 538.1Q532.848 537.687 533.646 537.313Q534.444 536.938 535.26 536.603Q536.075 536.268 536.906 535.974Q537.737 535.68 538.581 535.426Q539.425 535.173 540.281 534.961Q541.137 534.75 542.002 534.58Q542.867 534.411 543.739 534.284Q544.612 534.158 545.489 534.074Z"/>
	<path fill="#FEF4D7" transform="scale(2 2)" d="M308.143 748.698C311.869 748.108 316.259 748.367 320.05 748.395C337.899 748.527 356.366 751.468 371.534 761.444C378.714 766.165 391.453 775.633 393.27 784.563C391.086 788.472 364.442 809.067 359.706 811.121C353.493 811.124 346.594 802.28 341.22 799.06Q340.311 798.523 339.378 798.031Q338.444 797.539 337.488 797.093Q336.532 796.646 335.555 796.246Q334.579 795.847 333.584 795.494Q332.589 795.142 331.579 794.838Q330.568 794.534 329.544 794.279Q328.52 794.024 327.485 793.819Q326.45 793.613 325.406 793.458Q324.362 793.303 323.312 793.198Q322.262 793.094 321.208 793.04Q320.154 792.986 319.099 792.983Q318.043 792.98 316.989 793.027Q315.935 793.075 314.884 793.174Q313.834 793.272 312.789 793.421Q311.744 793.571 310.708 793.77Q309.672 793.969 308.646 794.218C299.197 796.608 287.92 803.264 282.854 811.792C276.478 822.527 274.478 839.798 277.567 851.827C280.131 861.812 286.377 869.826 295.267 874.935C311.902 884.496 331.529 884.128 346.887 872.128C349.805 869.849 355.529 862.911 359.01 862.512C363.356 862.014 370.054 867.719 373.52 870.079C378.045 873.154 382.89 875.699 387.434 878.731C389.518 880.122 391.694 882.074 392.109 884.681C392.806 889.063 388.64 893.507 386.168 896.717C373.202 913.56 354.263 922.765 333.4 925.412C306.228 928.859 281.955 922.873 260.365 905.916C244.422 893.394 232.619 873.562 230.247 853.338C227.031 825.913 231.207 799.17 248.867 777.003C263.128 759.102 286.125 751.137 308.143 748.698Z"/>
	<path fill="#EBC794" transform="scale(2 2)" d="M386.86 474.456C386.954 458.003 385.923 331.256 387.509 327.806C388.889 326.707 390.3 326.007 391.934 325.356C398.214 322.854 404.863 320.938 411.276 318.785L439.063 309.217C452.083 304.785 465.696 298.325 479.286 296.334L479.383 296.868L480.047 296.495C481.752 304.796 480.482 316.111 480.443 324.752L479.993 389.683Q480.124 419.774 480.606 449.861C480.689 457.639 481.873 468.365 480.456 475.646C474.434 476.997 461.249 476.388 455.049 475.486C440.109 475.018 424.793 476.044 409.918 474.726C403.76 474.53 392.318 476.385 386.86 474.456Z"/>
	<path fill="#03536F" transform="scale(2 2)" d="M410.149 441.534C414.772 439.596 419.841 438.546 424.687 437.294C434.518 434.755 444.564 432.496 454.237 429.412C455.603 444.675 453.906 460.224 455.049 475.486C440.109 475.018 424.793 476.044 409.918 474.726C411.49 467.788 410.814 449.121 410.149 441.534Z"/>
	<path fill="#D7911E" transform="scale(2 2)" d="M405.97 438.745C418.089 435.777 430.287 432.709 442.273 429.248C444.952 428.475 454.409 424.304 456.332 425.008L456.852 426.732C456.489 434.636 456.864 442.658 456.887 450.577C456.91 458.378 456.553 466.36 457.026 474.139C464.91 473.83 472.644 474.876 480.456 475.646C474.434 476.997 461.249 476.388 455.049 475.486C453.906 460.224 455.603 444.675 454.237 429.412C444.564 432.496 434.518 434.755 424.687 437.294C419.841 438.546 414.772 439.596 410.149 441.534C410.814 449.121 411.49 467.788 409.918 474.726C403.76 474.53 392.318 476.385 386.86 474.456C391.956 471.994 400.986 473.625 406.659 473.446C405.377 461.873 406.979 450.318 405.97 438.745Z"/>
	<path fill="#D7911E" transform="scale(2 2)" d="M439.014 335.556C444.9 333.109 450.987 331.019 456.958 328.778L456.748 335.679C456.79 340.433 458.467 353.478 455.437 356.555C453.654 358.365 450.825 358.506 448.421 358.66C446.637 359.227 444.819 359.744 443.058 360.375C441.862 361.004 440.356 361.226 439.043 361.56L439.014 335.556Z"/>
	<path fill="#03536F" transform="scale(2 2)" d="M442.954 340.275Q448.703 338.422 454.499 336.721C454.514 343.319 454.419 349.939 454.591 356.534C452.54 357.208 450.4 357.799 448.421 358.66C446.637 359.227 444.819 359.744 443.058 360.375Q443.057 350.325 442.954 340.275Z"/>
	<path fill="#03536F" transform="scale(2 2)" d="M439.335 381.07C445.177 379.011 450.994 377.264 456.989 375.726C456.942 380.105 457.845 397.573 456.66 400.649C456.216 401.801 455.506 401.783 454.434 402.15C450.712 403.156 447.071 404.457 443.422 405.697C443.08 405.949 442.596 406.332 442.209 406.484C441.11 406.916 440.771 406.852 439.795 406.282C437.748 401.96 439.011 386.517 439.335 381.07Z"/>
	<path fill="#D7911E" transform="scale(2 2)" d="M439.335 381.07C445.177 379.011 450.994 377.264 456.989 375.726C456.942 380.105 457.845 397.573 456.66 400.649C456.216 401.801 455.506 401.783 454.434 402.15Q454.649 391.651 454.47 381.152C450.495 382.25 446.718 383.51 442.891 385.043C442.997 391.919 442.971 398.835 443.422 405.697C443.08 405.949 442.596 406.332 442.209 406.484C441.11 406.916 440.771 406.852 439.795 406.282C437.748 401.96 439.011 386.517 439.335 381.07Z"/>
	<path fill="#03536F" transform="scale(2 2)" d="M406.033 347.025C411.178 344.367 417.323 342.637 422.831 340.84C423.37 346.225 424.326 362.86 422.307 367.43C418.363 368.684 414.146 369.736 410.339 371.335C409.054 372.352 407.3 372.782 405.765 373.308C405.534 364.514 405.479 355.809 406.033 347.025Z"/>
	<path fill="#D7911E" transform="scale(2 2)" d="M406.033 347.025C411.178 344.367 417.323 342.637 422.831 340.84C423.37 346.225 424.326 362.86 422.307 367.43C421.506 360.405 422.011 352.943 421.958 345.856Q415.91 347.682 410.017 349.96C409.967 354.182 408.974 368.263 410.339 371.335C409.054 372.352 407.3 372.782 405.765 373.308C405.534 364.514 405.479 355.809 406.033 347.025Z"/>
	<path fill="#D7911E" transform="scale(2 2)" d="M421.618 386.488L421.815 386.555C423.439 388.432 422.828 408.777 422.869 412.389C417.606 413.579 412.862 415.898 407.397 415.965L406.341 415.965C404.647 413.038 405.513 397.096 405.491 392.606C410.67 390.245 416.318 388.617 421.618 386.488Z"/>
	<path fill="#03536F" transform="scale(2 2)" d="M418.754 392.054C420.183 391.926 420.695 391.594 421.839 392.52C422.616 398.631 422.101 405.344 422.082 411.529C418.992 412.665 415.802 413.504 412.638 414.401C411.697 414.689 411.635 414.682 410.604 414.442C408.678 410.137 409.855 399.686 409.936 394.759C412.785 393.62 415.804 392.887 418.754 392.054Z"/>
	<path fill="#B2752B" transform="scale(2 2)" d="M497.067 475.081C496.464 464.999 496.954 454.614 496.91 444.487Q496.635 409.427 496.838 374.366C496.78 354.074 495.983 333.817 495.979 313.514C495.978 308.678 495.154 299.803 496.517 295.361C496.649 295.315 496.777 295.254 496.913 295.223C499.124 294.717 502.433 295.842 504.602 296.491C519.301 300.894 533.706 306.492 548.249 311.388C556.798 314.266 594.144 324.835 599.544 329.38C600.857 330.485 601.011 331.764 601.209 333.395C602.57 344.572 601.647 356.077 601.476 367.308Q601.14 388.556 601.645 409.8C596.306 414.088 590.159 417.448 585.983 423.036C583.834 425.912 582.475 429.528 580.174 432.246C578.107 434.688 575.416 436.855 573.103 439.083C567.853 444.14 564.336 449.891 561.379 456.513C560.526 460.12 560.369 463.685 560.185 467.375C560.409 469.932 561.089 472.432 561.665 474.929C540.25 475.907 518.513 475.12 497.067 475.081Z"/>
	<path fill="#976115" transform="scale(2 2)" d="M544.963 429.189C550.24 430.005 555.272 431.265 560.107 433.556C559.491 438.425 558.763 452.675 561.379 456.513C560.526 460.12 560.369 463.685 560.185 467.375C560.127 467.286 560.043 467.208 560.01 467.107C559.643 465.981 559.907 465.972 559.03 464.974C557.307 464.566 555.921 464.107 554.385 463.208C554.248 463.128 554.112 463.044 553.975 462.962C551.9 462.281 549.712 461.896 547.666 461.174C546.134 460.634 545.808 460.169 545.154 458.732C543.839 451.399 544.902 437.179 544.963 429.189Z"/>
	<path fill="#002C33" transform="scale(2 2)" d="M545.428 436.243C548.558 436.935 551.734 437.535 554.773 438.566C554.589 443.09 555.534 460.049 553.975 462.962C551.9 462.281 549.712 461.896 547.666 461.174C546.134 460.634 545.808 460.169 545.154 458.732C545.782 451.276 545.211 443.719 545.428 436.243Z"/>
	<path fill="#002C33" transform="scale(2 2)" d="M516.75 422.742C521.853 423.557 527.005 425.176 532.098 425.752C532.275 432.692 533.485 450.882 531.704 457.049C530.128 456.734 528.602 456.361 527.057 455.923C523.927 454.983 520.815 454.239 517.614 453.58C516.416 443.473 517.721 432.976 516.75 422.742Z"/>
	<path fill="#976115" transform="scale(2 2)" d="M516.75 422.742C521.853 423.557 527.005 425.176 532.098 425.752C532.275 432.692 533.485 450.882 531.704 457.049C530.128 456.734 528.602 456.361 527.057 455.923C528.447 451.538 527.43 435.942 527.423 430.292Q522.658 429.072 517.88 427.905C517.455 436.379 518.673 445.172 517.614 453.58C516.416 443.473 517.721 432.976 516.75 422.742Z"/>
	<path fill="#976115" transform="scale(2 2)" d="M517.506 330.957C516.761 329.174 516.224 327.771 516.888 325.943C518.637 325.01 520.733 325.788 522.504 326.338C525.864 327.38 529.169 328.795 532.445 330.081C531.929 335.37 532.798 355.9 531.458 358.709L530.576 358.711C529.128 358.396 527.766 358.202 526.536 357.32C523.909 356.453 521.216 355.826 518.535 355.156C516.511 352.312 518.21 335.579 517.506 330.957Z"/>
	<path fill="#002C33" transform="scale(2 2)" d="M517.506 330.957C520.78 331.665 523.802 332.669 526.935 333.851Q526.566 345.583 526.536 357.32C523.909 356.453 521.216 355.826 518.535 355.156C516.511 352.312 518.21 335.579 517.506 330.957Z"/>
	<path fill="#976115" transform="scale(2 2)" d="M545.207 409.194C544.417 403.426 544.485 388.843 544.742 382.535C546.033 381.797 547.537 382.211 548.925 382.592C552.808 383.656 556.546 385.214 560.5 386.003C559.39 394.809 559.439 403.699 558.759 412.541C557.609 413.103 556.961 413.009 555.746 412.568C555.087 412.33 554.717 412.135 554.111 411.841C551.575 411.29 547.056 410.877 545.207 409.194Z"/>
	<path fill="#002C33" transform="scale(2 2)" d="M545.446 387.131C548.46 387.988 551.437 388.837 554.361 389.971C554.451 394.282 555.572 408.622 554.111 411.841C551.575 411.29 547.056 410.877 545.207 409.194C545.538 401.852 545.437 394.48 545.446 387.131Z"/>
	<path fill="#002C33" transform="scale(2 2)" d="M517.338 378.693C517.044 377.309 516.717 376.223 517.185 374.831C518.537 373.869 519.822 373.879 521.417 374.105C524.795 374.583 528.621 375.995 531.709 377.433C531.558 382.885 531.914 402.392 530.62 405.912L529.967 406.315L526.077 404.821C524.629 404.305 523.096 403.944 521.614 403.532C520.192 403.137 519.061 402.766 517.795 401.963C516.452 394.74 518.019 386.691 517.395 379.29L517.338 378.693Z"/>
	<path fill="#976115" transform="scale(2 2)" d="M517.338 378.693C517.044 377.309 516.717 376.223 517.185 374.831C518.537 373.869 519.822 373.879 521.417 374.105C524.795 374.583 528.621 375.995 531.709 377.433C531.558 382.885 531.914 402.392 530.62 405.912L529.967 406.315L526.077 404.821C527.313 402.816 526.564 384.888 526.552 381.45L517.338 378.693Z"/>
	<path fill="#976115" transform="scale(2 2)" d="M545.513 342.408C545.27 340.679 544.915 339.077 545.389 337.357C546.349 336.309 546.509 336.15 548.014 336.051C551.079 335.849 557.522 339.372 560.457 340.672C559.68 348.091 560.817 359.762 559.589 365.907C558.403 366.443 557.735 366.43 556.487 365.976C555.793 365.725 555.068 365.253 554.522 364.772C551.58 363.568 548.341 362.775 545.297 361.836L545.513 342.408Z"/>
	<path fill="#002C33" transform="scale(2 2)" d="M545.513 342.408L546.306 341.767C549.211 342.093 552.04 343.398 554.767 344.422C554.618 349.971 555.699 359.796 554.522 364.772C551.58 363.568 548.341 362.775 545.297 361.836L545.513 342.408Z"/>
	<path fill="#976115" transform="scale(2 2)" d="M572.484 343.092C577.091 344.427 581.789 345.668 586.1 347.816C586.031 352.983 587.059 370.237 585.236 373.745C584.342 373.985 583.501 374.195 582.586 374.342C581.563 373.866 580.851 373.513 580.074 372.685C578.032 371.964 575.971 371.349 573.894 370.737C572.052 368.333 573.299 353.781 572.964 349.46C572.381 347.357 572.485 345.256 572.484 343.092Z"/>
	<path fill="#002C33" transform="scale(2 2)" d="M572.964 349.46C575.684 350.23 578.419 350.939 581.048 351.987C580.935 354.887 581.084 371.312 580.074 372.685C578.032 371.964 575.971 371.349 573.894 370.737C572.052 368.333 573.299 353.781 572.964 349.46Z"/>
	<path fill="#002C33" transform="scale(2 2)" d="M572.058 395.482C571.803 393.946 571.432 392.697 572.184 391.242C573.887 390.196 575.271 390.33 577.147 390.788C579.791 391.434 582.416 392.229 585.034 392.972C585.069 398.146 585.774 415.951 583.385 419.538C582.114 419.043 581.092 418.64 580.044 417.726C577.633 416.719 574.944 416.234 572.409 415.608Q572.372 405.543 572.058 395.482Z"/>
	<path fill="#976115" transform="scale(2 2)" d="M572.058 395.482C571.803 393.946 571.432 392.697 572.184 391.242C573.887 390.196 575.271 390.33 577.147 390.788C579.791 391.434 582.416 392.229 585.034 392.972C585.069 398.146 585.774 415.951 583.385 419.538C582.114 419.043 581.092 418.64 580.044 417.726C581.225 414.199 580.461 401.655 580.484 397.368C577.723 396.516 574.975 395.437 572.058 395.482Z"/>
	<path fill="#D7911E" transform="scale(2 2)" d="M582.586 374.342C583.518 374.479 584.063 374.674 584.87 375.161L584.975 376.137L583.794 376.904C580.992 377.386 576.762 376.293 574.179 375.161C573 374.644 572.609 373.946 572.187 372.789C572.532 371.809 573.124 371.374 573.894 370.737C575.971 371.349 578.032 371.964 580.074 372.685C580.851 373.513 581.563 373.866 582.586 374.342Z"/>
	<path fill="#D7911E" transform="scale(2 2)" d="M518.535 355.156C521.216 355.826 523.909 356.453 526.536 357.32C527.766 358.202 529.128 358.396 530.576 358.711C529.593 359.646 528.846 360.446 527.448 360.693C524.834 361.156 520.134 360.046 518.139 358.293C517.297 357.554 517.381 357.293 517.344 356.25L518.535 355.156Z"/>
	<path fill="#D7911E" transform="scale(2 2)" d="M521.614 403.532C523.096 403.944 524.629 404.305 526.077 404.821L529.967 406.315C530.687 407.075 530.599 407.055 530.825 407.987L529.994 408.613C527.034 408.95 523.278 408.412 520.526 407.226C519.309 406.701 518.697 406.348 518.177 405.13C519.219 403.778 519.985 403.903 521.614 403.532Z"/>
	<path fill="#D7911E" transform="scale(2 2)" d="M572.409 415.608C574.944 416.234 577.633 416.719 580.044 417.726C581.092 418.64 582.114 419.043 583.385 419.538L583.687 420.009L583.312 420.805C582.139 421.355 581.205 421.47 579.93 421.416C577.031 421.291 574.324 420.68 572.367 418.449C571.999 417.094 571.982 416.941 572.409 415.608Z"/>
	<path fill="#FB6439" transform="scale(2 2)" d="M600.013 194.011C608.401 189.517 663.923 165.654 669.446 166.6C670.436 167.742 670.568 168.154 670.602 169.66C670.796 178.305 670.462 187.048 670.452 195.704L670.383 256.472L670.096 442.104C666.07 439.226 661.754 436.475 658.437 432.769C651.082 424.555 649.25 415.748 637.298 411.948C631.455 410.09 625.356 409.906 619.369 408.85C617.812 382.562 619.233 355.997 618.905 329.676L618.825 328.105C618.763 323.854 619.413 318.722 615.992 315.53C612.299 312.085 604.689 310.564 600.05 308.199C598.92 270.171 600.226 232.057 600.013 194.011Z"/>
	<path fill="#004051" transform="scale(2 2)" d="M632.662 329.23C632.638 331.415 632.54 333.574 632.912 335.736L633.05 340.859C630.117 342.125 627.035 343.13 624.03 344.216C624.044 340.585 624.053 336.988 623.76 333.366C625.144 331.007 630.133 330.004 632.662 329.23Z"/>
	<path fill="#D44227" transform="scale(2 2)" d="M618.825 328.105C624.327 326.193 629.798 324.235 635.457 322.827C634.387 327.11 633.448 331.349 632.912 335.736C632.54 333.574 632.638 331.415 632.662 329.23C630.133 330.004 625.144 331.007 623.76 333.366C623.004 331.482 621.581 329.877 619.732 328.99L618.905 329.676L618.825 328.105Z"/>
	<path fill="#D44227" transform="scale(2 2)" d="M617.235 271.685C615.796 271.56 614.367 271.748 612.929 271.86L612.414 271.266C611.777 266.294 611.026 258.782 612.62 253.974C613.191 252.251 615.213 250.774 616.747 249.942C620.129 248.107 624.112 246.969 627.673 245.464Q642.289 239.4 656.742 232.955C657.325 240.155 658.01 248.564 656.984 255.704C656.04 256.927 654.871 257.167 653.464 257.763C647.943 259.363 642.447 261.959 637.19 264.268C635.673 264.852 634.139 265.524 632.576 265.963C627.592 268.036 622.483 270.386 617.235 271.685Z"/>
	<path fill="#004051" transform="scale(2 2)" d="M636.948 248.726C642.309 246.562 647.656 244.519 653.142 242.692Q653.166 250.23 653.464 257.763C647.943 259.363 642.447 261.959 637.19 264.268C637.216 259.091 637.045 253.903 636.948 248.726Z"/>
	<path fill="#004051" transform="scale(2 2)" d="M617.181 257.264C622.063 254.602 627.389 252.785 632.522 250.659L632.576 265.963C627.592 268.036 622.483 270.386 617.235 271.685L617.181 257.264Z"/>
	<path fill="#D44227" transform="scale(2 2)" d="M612.476 291.425C620.841 288.692 629.045 285.694 637.329 282.734C643.803 280.421 651.178 278.548 656.962 274.767C657.049 282.358 657.779 290.614 656.87 298.126C655.72 299.092 654.917 298.946 653.447 299.093C647.863 300.985 642.538 303.629 636.913 305.363C635.288 305.651 634.08 306.131 632.606 306.865C628 309.454 622.448 311.069 617.477 312.86C615.846 312.998 614.691 313.335 613.307 312.396C611.259 307.672 612.409 296.919 612.476 291.425Z"/>
	<path fill="#004051" transform="scale(2 2)" d="M636.434 290.397C641.83 287.95 647.442 285.709 653.023 283.724L653.447 299.093C647.863 300.985 642.538 303.629 636.913 305.363C635.599 301.444 636.47 294.676 636.434 290.397Z"/>
	<path fill="#004051" transform="scale(2 2)" d="M617.261 297.562Q624.865 294.713 632.426 291.752L632.606 306.865C628 309.454 622.448 311.069 617.477 312.86C616.817 307.978 617.283 302.516 617.261 297.562Z"/>
	<path fill="#D44227" transform="scale(2 2)" d="M611.861 216.079C626.799 208.458 641.885 200.211 657.422 193.92C657.435 199.113 658.234 212.489 656.295 216.822C655.255 217.611 655.162 217.621 653.853 217.672C648.419 219.939 643.003 222.333 637.515 224.461Q635.18 225.397 632.888 226.435C627.784 228.668 622.689 231.097 617.473 233.045C616.126 233.18 614.687 234.031 613.238 234.233C612.126 228.498 612.252 221.94 611.861 216.079Z"/>
	<path fill="#004051" transform="scale(2 2)" d="M653.605 204.03C653.862 208.575 654.038 213.122 653.853 217.672C648.419 219.939 643.003 222.333 637.515 224.461C636.045 221.18 636.974 214.259 636.967 210.528C642.281 207.946 647.975 205.805 653.605 204.03Z"/>
	<path fill="#004051" transform="scale(2 2)" d="M617.065 219.693C622.14 217.147 627.362 214.981 632.646 212.916C632.589 217.408 632.365 221.967 632.888 226.435C627.784 228.668 622.689 231.097 617.473 233.045C617.122 228.609 617.496 224.157 617.065 219.693Z"/>
	<path fill="#D44227" transform="scale(2 2)" d="M638.159 362.184C642.07 360.277 653.301 355.059 657.008 355.551C657.602 362.286 657.613 369.319 657.493 376.081C655.935 376.531 654.356 376.95 652.816 377.458C649.336 378.362 645.669 379.104 642.281 380.289L638.225 381.491C636.335 382.229 634.461 383.175 632.551 383.824C629.746 384.194 626.82 385.132 624.06 385.81C624.149 381.375 624.052 376.928 624.023 372.493C623.889 370.879 623.526 368.536 624.43 367.107C625.758 365.008 629.866 364.714 632.112 364.247C634.315 363.846 636.128 363.076 638.159 362.184Z"/>
	<path fill="#004051" transform="scale(2 2)" d="M642.413 366.56C645.742 365.21 649.162 364.075 652.552 362.892C652.523 367.742 652.716 372.608 652.816 377.458C649.336 378.362 645.669 379.104 642.281 380.289C642.485 375.692 642.559 371.161 642.413 366.56Z"/>
	<path fill="#004051" transform="scale(2 2)" d="M624.023 372.493C626.121 370.874 629.98 370.609 632.565 370.124C632.422 374.698 632.47 379.25 632.551 383.824C629.746 384.194 626.82 385.132 624.06 385.81C624.149 381.375 624.052 376.928 624.023 372.493Z"/>
	<path fill="#D44227" transform="scale(2 2)" d="M637.179 322.205C643.407 318.816 650.426 316.433 657.016 313.797C656.975 319.661 658.63 326.598 656.849 332.185C655.576 333.406 654.74 333.389 653.044 333.765L643.104 337.318C641.192 338.418 638.914 339.156 636.869 340.002C636.849 334.081 637.469 328.11 637.179 322.205Z"/>
	<path fill="#004051" transform="scale(2 2)" d="M643.031 325.494Q647.812 323.781 652.62 322.144C652.877 326.004 652.915 329.898 653.044 333.765L643.104 337.318C642.912 333.374 642.978 329.44 643.031 325.494Z"/>
	<path fill="#55B9F0" transform="scale(2 2)" d="M283.174 218.745C291.547 214.928 322.8 203.709 330.536 203.058C331.077 263.169 329.961 323.292 329.984 383.41L330.015 441.729C330.021 452.738 330.983 464.791 329.187 475.635C323.439 476.155 317.523 476.064 311.756 475.863C318.257 465.337 322.276 451.861 319.43 439.494C318.16 433.973 315.191 430.23 312.279 425.56C312.644 422 312.861 418.347 313.423 414.817C313.694 408.953 312.455 404.402 310.752 398.825L308.494 393.088C306.735 388.911 303.993 385.02 301.02 381.631L300.341 380.867L297.498 378.318C293.323 375.815 287.142 375.368 283.634 372.4C281.016 369.552 280.394 366.721 279.377 363.081C276.999 358.602 274.428 354.821 270.961 351.108L267.405 347.831C264.853 345.514 262.043 343.515 259.279 341.463C257.124 340.341 255.078 339.087 253.017 337.805C251.92 323.743 253.117 306.982 253.01 292.532L252.586 252.788C252.564 245.155 252.251 237.45 253.158 229.861C256.472 225.627 277.18 220.587 283.174 218.745Z"/>
	<path fill="#77D5F3" transform="scale(2 2)" d="M253.017 337.805C251.92 323.743 253.117 306.982 253.01 292.532L252.586 252.788C252.564 245.155 252.251 237.45 253.158 229.861C256.472 225.627 277.18 220.587 283.174 218.745L283.568 219.302C279.334 221.541 260.444 225.708 258.764 228.084L258.986 228.828L260.29 228.761L260.478 229.244L258.805 230.545L258.926 231.59C259.735 231.247 259.224 231.512 260.013 230.955C263.216 228.691 268.38 228.939 271.975 226.7C273.495 225.753 275.94 224.739 277.712 224.668C274.633 227.71 263.078 230.866 258.68 232.39C257.397 246.113 258.552 260.422 258.462 274.231L258.861 274.666L259.613 274.252C259.844 275.541 259.875 276.512 259.715 277.811C258.857 278.408 258.644 278.511 258.426 279.602C257.722 283.13 258.487 289.608 258.497 293.459C258.538 309.491 258.557 325.442 259.279 341.463C257.124 340.341 255.078 339.087 253.017 337.805Z"/>
	<path fill="#156899" transform="scale(2 2)" d="M301.973 361.981C304.937 361.163 315.853 356.989 317.975 357.728C319.244 360.14 318.448 370.968 318.739 374.545L318.797 375.205C313.523 376.47 305.074 377.777 301.02 381.631L300.341 380.867C303.047 376.077 301.993 367.389 301.973 361.981Z"/>
	<path fill="#2389D6" transform="scale(2 2)" d="M297.475 357.122C304.44 354.429 311.377 352.056 318.536 349.948C319.461 357.767 319.678 367.391 318.797 375.205L318.739 374.545C318.448 370.968 319.244 360.14 317.975 357.728C315.853 356.989 304.937 361.163 301.973 361.981C301.993 367.389 303.047 376.077 300.341 380.867L297.498 378.318C296.775 371.472 297.409 364.027 297.475 357.122Z"/>
	<path fill="#156899" transform="scale(2 2)" d="M273.411 330.786C277.225 330.349 280.669 328.538 284.472 327.957Q284.478 336.993 284.581 346.028C280.703 347.483 276.837 349.006 272.929 350.376C271.76 348.279 273.265 334.152 273.411 330.786Z"/>
	<path fill="#2389D6" transform="scale(2 2)" d="M267.159 326.675C272.876 324.633 278.55 322.951 284.527 321.85L284.472 327.957C280.669 328.538 277.225 330.349 273.411 330.786C273.265 334.152 271.76 348.279 272.929 350.376L270.961 351.108L267.405 347.831C268.526 344.365 267.633 330.811 267.159 326.675Z"/>
	<path fill="#156899" transform="scale(2 2)" d="M310.752 398.825C313.457 398.022 316.033 397.268 318.551 395.969C318.53 402.089 318.607 408.228 318.462 414.345L313.423 414.817C313.694 408.953 312.455 404.402 310.752 398.825Z"/>
	<path fill="#2389D6" transform="scale(2 2)" d="M308.494 393.088C311.854 392.156 315.233 391.099 318.653 390.425L318.551 395.969C316.033 397.268 313.457 398.022 310.752 398.825L308.494 393.088Z"/>
	<path fill="#2389D6" transform="scale(2 2)" d="M279.377 363.081C281.02 362.021 282.657 361.12 284.423 360.281C284.452 364.328 284.41 368.412 283.634 372.4C281.016 369.552 280.394 366.721 279.377 363.081Z"/>
	<path fill="#156899" transform="scale(2 2)" d="M296.558 274.509C303.66 270.804 310.742 267.779 318.455 265.576L318.482 273.949C318.434 280.608 318.595 287.373 318.076 294.011Q309.756 296.607 301.474 299.321C299.936 300.051 298.231 300.552 296.626 301.126Q296.415 287.818 296.558 274.509Z"/>
	<path fill="#2389D6" transform="scale(2 2)" d="M296.558 274.509C303.66 270.804 310.742 267.779 318.455 265.576L318.482 273.949C312.829 275.529 307.577 278.072 302.018 279.847C301.916 286.212 302.305 293.02 301.474 299.321C299.936 300.051 298.231 300.552 296.626 301.126Q296.415 287.818 296.558 274.509Z"/>
	<path fill="#156899" transform="scale(2 2)" d="M296.578 315.32C303.628 312.15 311.248 308.881 318.726 306.939C318.767 309.304 318.673 311.678 318.629 314.043Q318.68 324.118 318.931 334.191C313.284 335.878 307.599 337.488 302.02 339.387C300.409 340.122 298.636 340.657 296.971 341.271Q296.71 328.296 296.578 315.32Z"/>
	<path fill="#2389D6" transform="scale(2 2)" d="M296.578 315.32C303.628 312.15 311.248 308.881 318.726 306.939C318.767 309.304 318.673 311.678 318.629 314.043C312.978 315.746 307.545 318.066 302.079 320.277C301.623 324.601 300.829 335.6 302.02 339.387C300.409 340.122 298.636 340.657 296.971 341.271Q296.71 328.296 296.578 315.32Z"/>
	<path fill="#156899" transform="scale(2 2)" d="M297.043 246.25C296.98 243.389 296.241 236.493 298.036 234.289C300.935 230.728 313.886 227.121 318.614 226.005C318.733 228.052 318.66 230.121 318.647 232.171L318.548 251.702C312.818 253.958 306.716 255.77 301.141 258.347L297.057 259.638L297.043 246.25Z"/>
	<path fill="#2389D6" transform="scale(2 2)" d="M297.043 246.25C296.98 243.389 296.241 236.493 298.036 234.289C300.935 230.728 313.886 227.121 318.614 226.005C318.733 228.052 318.66 230.121 318.647 232.171C317.211 232.806 315.74 233.607 314.186 233.875Q308.458 236.631 302.633 239.174C301.756 245.544 302.132 252.015 301.141 258.347L297.057 259.638L297.043 246.25Z"/>
	<path fill="#156899" transform="scale(2 2)" d="M267.371 286.266C272.861 283.516 278.765 281.639 284.509 279.49L284.509 286.176L284.472 305.045C280.537 306.777 276.501 308.056 272.41 309.352L267.564 310.539L267.371 286.266Z"/>
	<path fill="#2389D6" transform="scale(2 2)" d="M267.371 286.266C272.861 283.516 278.765 281.639 284.509 279.49L284.509 286.176C280.773 287.726 276.955 288.996 272.974 289.76C272.462 296.244 273.36 302.957 272.41 309.352L267.564 310.539L267.371 286.266Z"/>
	<path fill="#2389D6" transform="scale(2 2)" d="M284.558 238.862C284.383 244.75 284.7 250.628 284.407 256.521L284.324 263.294C280.432 264.68 276.122 265.843 272.419 267.642L267.282 270.045C267.24 265.717 265.913 251.178 267.036 248.145C268.691 243.672 280.125 240.664 284.558 238.862Z"/>
	<path fill="#156899" transform="scale(2 2)" d="M273.045 249.985C276.783 248.924 280.482 247.876 284.104 246.461Q284.152 251.494 284.407 256.521L284.324 263.294C280.432 264.68 276.122 265.843 272.419 267.642Q272.547 258.807 273.045 249.985Z"/>
	<path fill="#FEF4D7" transform="scale(2 2)" d="M349.547 500.194C359.775 500.054 370.282 499.71 380.484 500.396C395.407 523.689 410.882 546.644 425.488 570.145C425.709 557.949 423.135 509.439 425.888 502.218C426.833 501.304 427.585 500.867 428.845 500.559C432.166 499.748 455.897 499.81 459.921 500.298C461.415 500.479 462.557 500.722 463.854 501.487Q464.055 502.864 464.156 504.252C464.948 513.931 464.407 523.919 464.374 533.642L464.354 582.352L464.36 617.831C464.36 623.106 464.933 629.175 464.205 634.377C464.007 635.789 463 636.894 462.114 637.941C451.152 638.289 440.075 637.986 429.102 637.986C420.62 622.995 410.826 608.646 401.175 594.391C395.554 586.09 390.186 577.631 384.393 569.444C384.567 577.933 385.955 633.216 384.586 635.665C383.915 636.865 382.733 637.39 381.458 637.697C377.879 638.56 354.851 638.365 350.513 637.941C349.092 637.802 347.968 637.637 346.717 636.896C344.922 630.807 345.977 590.837 345.982 581.126C345.995 557.33 345.486 533.427 345.86 509.647C345.892 507.592 345.861 505.271 346.443 503.296C346.98 501.474 347.981 500.988 349.547 500.194Z"/>
	<path fill="#FEF4D7" transform="scale(2 2)" d="M629.648 752.052C645.629 751.579 661.743 752.015 677.739 752.021C679.792 753.894 681.434 755.989 682.789 758.411C686.516 765.076 689.095 772.495 692.109 779.515Q699.443 796.655 707.823 813.309C718.065 796.02 725.304 766.342 736.696 752.037C751.534 751.979 766.575 751.481 781.398 751.997C783.888 752.083 786.715 752.107 788.465 754.01C788.791 755.514 788.283 756.47 787.697 757.824L787.321 758.675C785.095 763.812 781.346 768.247 778.603 773.137L748.468 825.629C746.314 829.159 744.529 832.897 742.453 836.474C739.02 842.387 733.635 849.328 731.95 855.982C729.123 867.143 734.69 915.758 729.983 921.503C728.918 922.803 727.371 923.138 725.78 923.359C722.628 923.797 694.711 923.861 690.84 923.334C688.935 923.075 686.887 922.577 685.439 921.232C682.007 918.046 687.254 864.298 683.317 854.965C680.709 848.782 676.513 842.959 673.292 837.046C662.584 817.388 651.377 797.898 640.221 778.492C637.306 773.421 628.031 760.361 627.514 755.239C627.86 753.703 628.558 753.089 629.648 752.052Z"/>
	<path fill="#FEF4D7" transform="scale(2 2)" d="M480.727 752.149L563.993 752.019C577.873 751.981 592.433 751.052 606.239 752.053C608.46 752.214 610.502 752.596 612.595 753.375C613.036 753.887 613.382 754.368 613.596 755.019C614.635 758.171 614.749 792.493 612.952 794.971C611.661 796.753 608.691 797.594 606.655 797.95C602.159 798.735 596.968 798.201 592.396 798.214C584.913 798.235 577.426 798.395 569.943 798.508C569.381 808.21 569.723 818.078 569.728 827.797L569.835 881.875L569.969 918.942C569.441 919.743 568.909 920.57 568.279 921.296C566.667 923.151 563.571 923.472 561.278 923.611C555.437 923.967 549.355 923.363 543.488 923.315C538.64 923.276 533.445 924.103 528.651 923.357C526.888 923.083 525.252 922.525 523.952 921.267C522.943 920.29 522.829 919.491 522.693 918.133C521.535 906.579 522.498 891.022 522.476 878.979L522.397 797.505C515.461 797.328 482.583 798.514 478.611 796.059C477.384 794.289 476.892 792.418 476.584 790.294C475.719 784.335 476.146 760.859 477.273 754.473C478.186 753.078 479.253 752.747 480.727 752.149Z"/>
	<path fill="#FEF4D7" transform="scale(2 2)" d="M288.168 500.257C288.693 500.218 289.219 500.183 289.745 500.172C294.541 500.072 325.227 499.29 327.603 501.553C327.69 503.618 326.84 505.415 325.897 507.217C322.555 513.607 317.67 519.734 313.59 525.694Q300.179 544.869 287.211 564.346L305.664 593.853C310.447 601.674 314.939 609.635 320.109 617.216C324.63 624.112 330.255 630.728 334.192 637.912C319.917 638.335 305.545 638.014 291.259 638.028C279.981 621.294 267.441 605.338 255.325 589.198C255.445 596.152 256.554 634.887 254.339 637.186C250.667 638.516 226.357 638.386 220.875 638.004C219.371 637.899 217.555 637.884 216.495 636.669C215.471 630.265 215.989 623.277 215.986 616.782L215.982 583.421L216.06 520.429C216.113 515.584 215.574 510.591 215.77 505.798C215.837 504.162 216.051 502.888 216.668 501.373C217.928 500.275 218.272 500.399 219.887 500.257C227.741 500.192 246.804 498.892 253.494 500.83C256.831 504.96 255.087 539.72 255.342 547.417C259.278 542.6 262.545 537.036 266.019 531.864C273.173 521.214 280.338 510.422 288.168 500.257Z"/>
	<defs>
		<linearGradient id="gradient_0" gradientUnits="userSpaceOnUse" x1="293.32373" y1="468.54758" x2="194.66777" y2="387.78235">
			<stop offset="0" stop-color="#246E0E"/>
			<stop offset="1" stop-color="#53BA1D"/>
		</linearGradient>
	</defs>
	<path fill="url(#gradient_0)" transform="scale(2 2)" d="M207.703 405.708C203.8 395.99 202.722 383.579 206.927 373.757C210.422 365.594 217.372 359.562 225.577 356.376C232.947 353.515 242.953 353.303 250.227 356.553C255.289 358.814 258.755 362.799 260.61 367.994C263.309 375.553 262.329 382.81 260.902 390.509C267.433 387.741 273.026 387.584 279.728 390.247C286.089 392.774 292.162 397.728 294.901 404.089C299.278 414.254 295.285 423.486 291.47 432.957C296.526 436.455 300.736 440.207 301.77 446.624C302.87 453.455 300.43 461.778 296.211 467.122C291.584 472.983 284.547 474.871 277.43 475.524C268.158 476.375 258.53 475.927 249.247 475.464C246.29 461.928 250.092 445.707 248.404 431.915C246.41 429.752 243.746 426.554 240.57 426.336C239.153 426.239 238.075 426.672 237.113 427.7C228.9 436.474 237.998 470.637 231.987 474.784C230.787 475.612 228.131 475.935 226.694 476.037C217.468 476.693 199.37 469.836 192.564 463.747C186.683 458.485 183.407 451.55 182.418 443.789C181.037 437.888 182.185 430.554 184.282 424.946C186.668 417.719 193.336 411.762 199.963 408.387C202.447 407.122 204.996 406.334 207.703 405.708Z"/>
	<path fill="#43C32E" transform="scale(2 2)" d="M184.282 424.946C184.606 427.313 183.406 429.548 183.72 431.728C184.167 434.823 187.066 435.805 185.742 439.332C184.161 440.424 183.918 440.433 183.286 442.34L183.639 444.055L182.418 443.789C181.037 437.888 182.185 430.554 184.282 424.946Z"/>
	<path fill="#156899" transform="scale(2 2)" d="M346.287 475.292C345.278 463.696 346.014 451.485 346.033 439.827L346.035 375.009L345.991 264.837C345.985 246.694 345.492 228.418 345.962 210.293C345.982 209.502 346.172 208.936 346.527 208.237C350.653 207.574 363.563 216.559 367.822 219.219C375.727 221.849 383.595 228.477 390.757 232.782C395.49 235.627 400.734 237.996 405.247 241.144C406.398 241.947 407.779 242.859 408.477 244.109C411.659 249.813 409.647 291.007 409.829 300.56C405.025 303.269 380.788 313.029 375.985 313.667C374.16 314.503 371.673 315.142 370.576 316.822C370.179 324.81 369.746 332.719 370.03 340.721L370.026 353.557C369.806 361.741 369.942 369.968 369.589 378.143C369.565 383.288 369.932 388.847 369.013 393.913C369.007 403.729 369.227 413.48 369.53 423.29Q369.414 436.567 369.739 449.84C369.94 458.295 370.64 467.58 369.406 475.955L361.788 476.067C358.477 476.172 355.178 476.106 351.866 476.037C350.02 476.031 348.109 475.588 346.287 475.292Z"/>
	<path fill="#004261" transform="scale(2 2)" d="M401.644 243.222C389.624 233.92 376.387 226.43 363.458 218.483L363.617 217.22L363.273 217.593C364.17 217.758 363.898 217.615 364.562 218.028C365.487 218.603 366.028 219.064 367.158 219.202C367.378 219.229 367.6 219.214 367.822 219.219C375.727 221.849 383.595 228.477 390.757 232.782C395.49 235.627 400.734 237.996 405.247 241.144C406.398 241.947 407.779 242.859 408.477 244.109C411.659 249.813 409.647 291.007 409.829 300.56C405.025 303.269 380.788 313.029 375.985 313.667C374.392 313.636 374.102 313.742 372.691 314.497L372.314 314.342C374.334 309.987 377.811 310.713 381.752 308.74C382.783 308.223 383.074 308.177 383.459 307.057L383.181 306.641L381.628 307.862L381.159 307.389L381.285 304.629C382.121 305.158 382.976 305.848 383.938 306.087L381.901 303.678Q381.911 292.709 382.26 281.745C384.678 283.002 389.975 286.528 392.521 286.217L401.183 290.257C402.27 285.315 403.059 280.625 402.252 275.598L398.01 272.892C392.732 270.705 387.788 267.692 382.553 265.369C383.07 262.8 382.666 259.694 382.573 257.063C382.493 254.814 381.867 251.293 382.307 249.177C382.521 248.143 382.865 247.563 383.732 246.995L386.48 247.79C390.558 249.278 398.477 255.052 402.694 257.46C403.459 252.078 404.064 248.303 401.644 243.222Z"/>
	<path fill="#004051" transform="scale(2 2)" d="M382.573 257.063C382.734 255.823 382.699 253.53 383.612 252.754C388.509 254.608 395.479 258.642 399.39 262.05C399.59 265.197 400.319 269.043 399.519 272.078C399.02 272.374 398.551 272.679 398.01 272.892C392.732 270.705 387.788 267.692 382.553 265.369C383.07 262.8 382.666 259.694 382.573 257.063Z"/>
	<path fill="#03536F" transform="scale(2 2)" d="M358.474 271.335C358.694 270.054 358.629 269.105 359.508 268.11C363.058 269.872 391.1 284.797 392.521 286.217C389.975 286.528 384.678 283.002 382.26 281.745Q381.911 292.709 381.901 303.678L383.938 306.087C382.976 305.848 382.121 305.158 381.285 304.629L381.159 307.389L381.628 307.862L383.181 306.641L383.459 307.057C383.074 308.177 382.783 308.223 381.752 308.74C377.811 310.713 374.334 309.987 372.314 314.342L372.691 314.497C374.102 313.742 374.392 313.636 375.985 313.667C374.16 314.503 371.673 315.142 370.576 316.822C370.179 324.81 369.746 332.719 370.03 340.721L370.026 353.557L369.624 353.686L369.405 343.822C365.729 338.171 361.54 338.627 357.522 334.293C357.551 326.346 358.19 318.341 358.626 310.403C362.272 312.543 366.123 314.299 369.936 316.116L372.887 311.056C374.578 310.46 376.37 309.894 377.931 308.997C379.34 308.189 379.873 307.373 380.312 305.847C379.394 302.58 375.18 300.793 372.66 298.862L371.971 298.329C367.865 296.309 363.798 294.206 359.716 292.138C359.571 288.058 359.576 283.962 359.498 279.879C358.524 278.209 358.872 273.488 358.474 271.335Z"/>
	<path fill="#004051" transform="scale(2 2)" d="M359.498 279.879L359.8 274.943C364.37 276.802 372.825 279.012 374.974 283.758C376.265 286.609 375.873 293.037 374.751 295.934C374.244 297.242 373.199 297.794 371.971 298.329C367.865 296.309 363.798 294.206 359.716 292.138C359.571 288.058 359.576 283.962 359.498 279.879Z"/>
	<path fill="#004051" transform="scale(2 2)" d="M361.962 320.179Q363.052 320.114 364.14 320.028C367.398 319.763 368.375 319.415 370.576 316.822C370.179 324.81 369.746 332.719 370.03 340.721C368.913 338.47 364.449 337.82 362.121 336.76L361.558 336.499L361.962 320.179Z"/>
	<path fill="#04578B" transform="scale(2 2)" d="M359.757 377.679C359.364 372.517 357.343 365.909 358.494 360.885L360.048 360.251C361.153 358.029 359.402 355.147 359.913 352.599L360.695 352.299L362.131 353.112C364.12 353.976 367.076 356.028 369.208 356.006C369.615 355.021 369.638 354.71 369.624 353.686L370.026 353.557C369.806 361.741 369.942 369.968 369.589 378.143C369.565 383.288 369.932 388.847 369.013 393.913C369.007 403.729 369.227 413.48 369.53 423.29C367.449 421.531 364.939 420.087 362.742 418.415C362.492 415.619 362.498 412.788 362.423 409.982C361.683 414.083 363.126 418.883 361.973 422.693L361.179 420.633C361.245 414.649 360.928 408.219 361.786 402.303C362.123 399.977 362.552 398.826 364.462 397.362L365.145 396.844C368.428 394.303 367.472 386.899 367.941 382.939C365.529 380.915 362.64 378.937 359.757 377.679Z"/>
	<path fill="#004261" transform="scale(2 2)" d="M361.825 375.421C362.095 368.914 360.881 362.515 361.019 356.086C361.048 354.737 361.134 354.022 362.131 353.112C364.12 353.976 367.076 356.028 369.208 356.006C369.615 355.021 369.638 354.71 369.624 353.686L370.026 353.557C369.806 361.741 369.942 369.968 369.589 378.143C366.921 377.469 364.387 376.413 361.825 375.421Z"/>
	<path fill="#004261" transform="scale(2 2)" d="M362.423 409.982C362.452 407.862 362.362 405.59 362.646 403.49C363.026 400.679 365.367 398.753 367.493 397.162L367.852 396.897C368.177 395.862 368.57 394.903 369.013 393.913C369.007 403.729 369.227 413.48 369.53 423.29C367.449 421.531 364.939 420.087 362.742 418.415C362.492 415.619 362.498 412.788 362.423 409.982Z"/>
	<path fill="#03536F" transform="scale(2 2)" d="M362.423 409.982C362.498 412.788 362.492 415.619 362.742 418.415C364.939 420.087 367.449 421.531 369.53 423.29Q369.414 436.567 369.739 449.84C369.94 458.295 370.64 467.58 369.406 475.955L361.788 476.067C362.84 473.496 363.384 431.314 362.98 426.438C362.874 425.159 362.401 423.894 361.973 422.693C363.126 418.883 361.683 414.083 362.423 409.982Z"/>
	<path fill="#004051" transform="scale(2 2)" d="M360.017 241.597C360.373 240.359 360.561 238.683 361.462 237.769C362.751 238.624 364.073 239.789 365.44 240.476C369.356 242.447 375.447 243.137 376.378 248.227C376.901 251.081 376.99 259.212 375.916 261.911C370.783 259.546 365.743 256.75 360.833 253.957C359.847 249.925 360.03 245.723 360.017 241.597Z"/>
	<path fill="#03536F" transform="scale(2 2)" d="M360.179 232.002C367.813 236.785 380.068 242.568 386.48 247.79L383.732 246.995C382.865 247.563 382.521 248.143 382.307 249.177C381.867 251.293 382.493 254.814 382.573 257.063C382.666 259.694 383.07 262.8 382.553 265.369C380.31 264.644 377.901 263.14 375.916 261.911C376.99 259.212 376.901 251.081 376.378 248.227C375.447 243.137 369.356 242.447 365.44 240.476C364.073 239.789 362.751 238.624 361.462 237.769C360.561 238.683 360.373 240.359 360.017 241.597C359.845 238.482 359.389 235.036 360.179 232.002Z"/>
	<path fill="#04578B" transform="scale(2 2)" d="M357.056 251.407C356.949 247.922 357.589 232.773 359.007 230.088C359.893 230.797 359.817 230.978 360.179 232.002C359.389 235.036 359.845 238.482 360.017 241.597C360.03 245.723 359.847 249.925 360.833 253.957C359.595 253.065 358.348 252.222 357.056 251.407Z"/>
	<path fill="#04578B" transform="scale(2 2)" d="M359.716 292.138C358.327 291.595 357.484 291.196 356.357 290.172C357.416 283.996 357.088 277.316 358.474 271.335C358.872 273.488 358.524 278.209 359.498 279.879C359.576 283.962 359.571 288.058 359.716 292.138Z"/>
	<path fill="#FEF4D7" transform="scale(2 2)" d="M417.09 752.093C425.025 751.673 445.108 751.227 452.496 752.133C454.52 752.382 456.231 752.764 457.855 754.025C460.137 760.041 458.962 785.292 458.995 792.892L458.694 885.545L458.665 907.588C458.677 911.127 459.095 915.287 458.526 918.77C458.158 921.018 456.992 921.952 455.222 923.154C448.701 923.938 425.657 924.095 418.963 923.318C417.429 923.14 414.523 922.886 413.605 921.438C412.757 920.1 412.467 918.426 412.387 916.869C411.793 905.335 412.425 893.38 412.417 881.799L412.526 805.666Q412.629 790.02 412.498 774.374C412.466 767.811 411.948 760.831 413.044 754.346C414.057 752.961 415.541 752.64 417.09 752.093Z"/>
	<path fill="#FEF4D7" transform="scale(2 2)" d="M469.682 656.344Q470.696 656.308 471.711 656.321Q472.726 656.334 473.739 656.397Q474.752 656.459 475.76 656.571Q476.769 656.683 477.771 656.845Q478.773 657.006 479.766 657.216Q480.759 657.426 481.74 657.684Q482.722 657.942 483.689 658.247Q484.657 658.553 485.609 658.906Q486.56 659.258 487.494 659.657Q488.427 660.056 489.34 660.499Q490.253 660.943 491.143 661.431Q492.032 661.919 492.898 662.449Q493.763 662.98 494.601 663.552Q495.439 664.124 496.248 664.737Q497.058 665.349 497.836 666Q498.614 666.651 499.36 667.34Q500.106 668.028 500.817 668.752Q501.528 669.476 502.203 670.234Q502.878 670.992 503.515 671.782Q504.152 672.572 504.75 673.392Q505.348 674.212 505.905 675.06Q506.462 675.908 506.977 676.783Q507.492 677.657 507.964 678.556Q508.436 679.454 508.863 680.375Q509.29 681.296 509.672 682.236Q510.054 683.176 510.39 684.134Q510.725 685.092 511.013 686.065Q511.302 687.038 511.542 688.024Q511.783 689.01 511.975 690.006Q512.167 691.003 512.31 692.007Q512.453 693.012 512.547 694.023Q512.641 695.033 512.686 696.047Q512.73 697.061 512.725 698.076Q512.721 699.09 512.666 700.104Q512.611 701.117 512.508 702.127Q512.404 703.136 512.25 704.14Q512.097 705.143 511.896 706.137Q511.694 707.132 511.443 708.116Q511.193 709.099 510.895 710.069Q510.597 711.039 510.253 711.994Q509.908 712.948 509.516 713.885Q509.125 714.821 508.689 715.737Q508.253 716.654 507.772 717.548Q507.292 718.441 506.768 719.311Q506.244 720.18 505.679 721.023Q505.114 721.866 504.508 722.68Q503.902 723.494 503.257 724.277Q502.612 725.061 501.93 725.812Q501.247 726.563 500.529 727.28Q499.811 727.997 499.058 728.678Q498.306 729.359 497.521 730.003Q496.736 730.646 495.921 731.251Q495.106 731.855 494.262 732.419Q493.419 732.983 492.548 733.505Q491.678 734.027 490.783 734.506Q489.888 734.985 488.971 735.42Q488.054 735.855 487.117 736.244Q486.18 736.633 485.225 736.977Q484.27 737.32 483.299 737.616Q482.329 737.912 481.345 738.161Q480.361 738.409 479.366 738.609Q478.371 738.809 477.367 738.961Q476.364 739.112 475.354 739.214Q474.344 739.316 473.331 739.369Q472.307 739.422 471.282 739.425Q470.256 739.428 469.232 739.38Q468.208 739.332 467.187 739.234Q466.167 739.135 465.152 738.987Q464.138 738.838 463.132 738.64Q462.126 738.442 461.131 738.194Q460.136 737.946 459.154 737.65Q458.173 737.353 457.207 737.008Q456.242 736.664 455.294 736.272Q454.347 735.88 453.42 735.442Q452.492 735.004 451.588 734.521Q450.684 734.038 449.804 733.511Q448.925 732.983 448.073 732.413Q447.22 731.843 446.397 731.232Q445.574 730.621 444.782 729.97Q443.99 729.318 443.231 728.629Q442.472 727.94 441.748 727.214Q441.024 726.488 440.337 725.727Q439.65 724.966 439.001 724.172Q438.352 723.378 437.743 722.553Q437.134 721.729 436.566 720.875Q435.998 720.021 435.474 719.14Q434.949 718.259 434.468 717.353Q433.987 716.448 433.552 715.52Q433.116 714.591 432.727 713.643Q432.338 712.694 431.996 711.727Q431.654 710.761 431.36 709.778Q431.067 708.796 430.822 707.801Q430.577 706.805 430.381 705.798Q430.185 704.792 430.04 703.777Q429.894 702.762 429.799 701.741Q429.703 700.72 429.658 699.696Q429.613 698.672 429.618 697.646Q429.624 696.621 429.68 695.597Q429.736 694.573 429.843 693.554Q429.949 692.534 430.106 691.521Q430.263 690.507 430.469 689.503Q430.676 688.499 430.931 687.506Q431.187 686.513 431.492 685.534Q431.796 684.555 432.148 683.592Q432.501 682.629 432.9 681.684Q433.3 680.74 433.745 679.817Q434.191 678.893 434.681 677.993Q435.172 677.092 435.706 676.217Q436.24 675.342 436.817 674.494Q437.394 673.647 438.012 672.828Q438.63 672.01 439.287 671.223Q439.945 670.437 440.64 669.683Q441.336 668.93 442.068 668.212Q442.799 667.494 443.566 666.813Q444.332 666.131 445.131 665.489Q445.93 664.846 446.76 664.244Q447.59 663.642 448.448 663.081Q449.307 662.52 450.192 662.003Q451.077 661.485 451.986 661.011Q452.896 660.538 453.827 660.11Q454.759 659.682 455.711 659.301Q456.663 658.919 457.632 658.585Q458.601 658.251 459.586 657.965Q460.571 657.679 461.568 657.442Q462.566 657.205 463.574 657.018Q464.582 656.83 465.598 656.693Q466.614 656.555 467.636 656.468Q468.657 656.381 469.682 656.344Z"/>
	<path fill="#002C33" transform="scale(2 2)" d="M466.668 678.952Q467.136 678.839 467.609 678.748Q468.082 678.658 468.559 678.591Q469.036 678.524 469.516 678.481Q469.996 678.437 470.477 678.417Q470.958 678.397 471.44 678.401Q471.921 678.405 472.402 678.432Q472.883 678.46 473.362 678.511Q473.841 678.562 474.317 678.636Q474.793 678.711 475.264 678.809Q475.736 678.906 476.202 679.027Q476.669 679.148 477.128 679.292Q477.588 679.435 478.04 679.601Q478.493 679.767 478.936 679.955Q479.379 680.143 479.813 680.352Q480.247 680.562 480.67 680.792Q481.093 681.023 481.504 681.274Q481.915 681.525 482.313 681.796Q482.711 682.067 483.096 682.357Q483.48 682.647 483.85 682.956Q484.22 683.264 484.574 683.591Q484.928 683.917 485.266 684.261Q485.604 684.604 485.924 684.964Q486.244 685.323 486.547 685.698Q486.849 686.073 487.133 686.462Q487.416 686.852 487.681 687.255Q487.945 687.657 488.189 688.073Q488.433 688.488 488.656 688.915Q488.88 689.341 489.082 689.778Q489.284 690.216 489.464 690.662Q489.645 691.109 489.803 691.564Q489.962 692.019 490.097 692.481Q490.233 692.943 490.346 693.411Q490.459 693.879 490.549 694.352Q490.638 694.826 490.705 695.303Q490.771 695.78 490.814 696.26Q490.857 696.739 490.877 697.221Q490.896 697.702 490.892 698.184Q490.887 698.665 490.859 699.146Q490.831 699.627 490.78 700.106Q490.728 700.585 490.653 701.061Q490.578 701.536 490.48 702.008Q490.382 702.479 490.261 702.946Q490.139 703.412 489.995 703.871Q489.851 704.331 489.685 704.783Q489.518 705.235 489.33 705.678Q489.141 706.122 488.931 706.555Q488.721 706.989 488.49 707.411Q488.259 707.834 488.008 708.245Q487.757 708.656 487.485 709.054Q487.214 709.452 486.923 709.836Q486.633 710.22 486.324 710.589Q486.015 710.959 485.688 711.312Q485.361 711.666 485.017 712.004Q484.673 712.341 484.313 712.661Q483.953 712.981 483.578 713.283Q483.203 713.585 482.813 713.868Q482.424 714.151 482.021 714.415Q481.617 714.679 481.202 714.923Q480.786 715.166 480.359 715.389Q479.932 715.612 479.495 715.814Q479.058 716.015 478.611 716.195Q478.164 716.375 477.709 716.533Q477.254 716.691 476.792 716.826Q476.329 716.962 475.861 717.074Q475.393 717.186 474.921 717.275Q474.448 717.365 473.971 717.43Q473.495 717.496 473.016 717.539Q472.537 717.581 472.056 717.6Q471.575 717.619 471.094 717.614Q470.613 717.61 470.133 717.581Q469.653 717.553 469.175 717.501Q468.697 717.45 468.222 717.375Q467.746 717.299 467.276 717.201Q466.805 717.103 466.339 716.981Q465.874 716.86 465.415 716.716Q464.956 716.572 464.505 716.406Q464.053 716.239 463.611 716.051Q463.168 715.863 462.735 715.653Q462.302 715.443 461.88 715.213Q461.458 714.982 461.048 714.731Q460.638 714.48 460.24 714.209Q459.843 713.938 459.459 713.648Q459.075 713.357 458.706 713.049Q458.337 712.74 457.984 712.414Q457.631 712.088 457.294 711.744Q456.957 711.401 456.637 711.042Q456.317 710.682 456.015 710.308Q455.714 709.933 455.431 709.544Q455.148 709.155 454.884 708.753Q454.62 708.351 454.377 707.936Q454.133 707.521 453.91 707.095Q453.688 706.669 453.486 706.232Q453.284 705.795 453.104 705.349Q452.924 704.903 452.766 704.449Q452.608 703.995 452.472 703.533Q452.337 703.072 452.224 702.604Q452.111 702.136 452.022 701.664Q451.932 701.191 451.866 700.715Q451.799 700.239 451.756 699.76Q451.713 699.28 451.694 698.8Q451.674 698.319 451.679 697.838Q451.683 697.357 451.71 696.877Q451.738 696.397 451.789 695.919Q451.841 695.44 451.915 694.965Q451.99 694.49 452.088 694.019Q452.186 693.548 452.307 693.083Q452.427 692.617 452.571 692.158Q452.714 691.699 452.88 691.247Q453.046 690.796 453.234 690.353Q453.422 689.91 453.631 689.477Q453.84 689.044 454.07 688.622Q454.301 688.199 454.551 687.789Q454.802 687.378 455.073 686.981Q455.343 686.583 455.633 686.199Q455.923 685.815 456.231 685.446Q456.539 685.076 456.865 684.723Q457.191 684.369 457.534 684.032Q457.876 683.694 458.235 683.374Q458.594 683.054 458.969 682.752Q459.343 682.45 459.731 682.166Q460.12 681.883 460.522 681.619Q460.924 681.355 461.339 681.111Q461.753 680.867 462.179 680.643Q462.605 680.42 463.042 680.218Q463.478 680.016 463.924 679.835Q464.37 679.654 464.824 679.496Q465.278 679.337 465.739 679.201Q466.201 679.065 466.668 678.952Z"/>
	<path fill="#2E7F0F" transform="scale(2 2)" d="M773.205 344.133C780.495 343.62 787.45 345.735 793.427 349.873C800.844 355.007 806.637 363.357 808.127 372.325C809.676 381.654 806.894 390.112 801.531 397.7C811.593 399.801 822.715 405.992 828.609 414.62C833.755 422.152 835.085 431.608 833.315 440.45C830.965 452.185 823.884 461.843 814.014 468.428C810.509 470.571 806.708 472.659 802.763 473.853C797.518 475.44 788.248 476.121 783.388 473.24C772.9 467.023 789.547 438.879 786.345 427.385C785.751 425.256 783.736 422.391 781.687 421.458C780.543 420.936 779.471 420.761 778.286 421.297C774.714 422.909 772.584 428.825 771.031 432.133C770.828 426.374 771.501 420.56 771.688 414.8C772.034 404.099 772.065 393.279 771.971 382.572C771.862 370.251 769.746 358.181 770.51 345.785C771.376 344.745 771.966 344.626 773.205 344.133Z"/>
	<path fill="#FEF4D7" transform="scale(2 2)" d="M603.406 658.619C609.297 658.357 615.244 658.437 621.142 658.387C632.358 658.291 645.476 657.09 654.419 665.314C660.982 671.35 662.914 680.276 663.081 688.827C663.274 698.781 658.678 705.04 652.09 711.817C656.672 718.664 662.677 728.533 666.41 735.799C662.726 736.083 658.948 735.951 655.25 735.975L641.663 735.994C637.791 729.803 634.649 722.968 631.09 716.567L623.996 716.667C623.64 723.066 623.785 729.496 623.462 735.907Q612.481 736.078 601.501 735.89C601.308 718.657 601.545 701.476 601.762 684.247C601.854 676.904 601.308 669.065 602.041 661.783C602.197 660.232 602.501 659.843 603.406 658.619Z"/>
	<path fill="#002C33" transform="scale(2 2)" d="M623.874 678.004C628.641 677.897 633.173 677.521 637.423 680.151C639.593 681.494 641.616 683.66 642.046 686.26C642.579 689.489 641.18 692.674 639.33 695.223C634.753 697.918 628.978 697.373 623.851 697.277C623.751 690.848 623.622 684.431 623.874 678.004Z"/>
	<path fill="#FEF4D7" transform="scale(2 2)" d="M522.636 659.148C528.739 658.623 538.124 657.71 543.899 659.539C546.961 662.571 543.785 702.821 545.294 710.651C545.684 712.678 546.544 714.194 548.301 715.333C551.288 717.267 556.537 717.892 559.939 717.004C563.018 716.201 565.17 714.033 566.231 711.065C569.769 701.164 564.108 666.102 568.082 659.79C570.942 657.837 585.377 658.942 589.364 659.126C590.396 665.52 589.871 672.412 589.836 678.875C589.849 689.036 590.182 699.315 589.824 709.467C589.548 717.284 587.722 724.309 581.695 729.761C574.078 736.65 562.777 738.062 552.903 737.565C544.666 737.15 534.84 734.996 529.249 728.473C526.054 724.746 523.993 719.334 523.086 714.552C521.351 705.415 521.697 669.493 522.636 659.148Z"/>
	<defs>
		<linearGradient id="gradient_1" gradientUnits="userSpaceOnUse" x1="641.77435" y1="491.09836" x2="595.6604" y2="436.55011">
			<stop offset="0" stop-color="#29730F"/>
			<stop offset="1" stop-color="#47A81B"/>
		</linearGradient>
	</defs>
	<path fill="url(#gradient_1)" transform="scale(2 2)" d="M593.666 448.653C594.595 442.166 596.339 436.461 600.938 431.515Q601.373 431.047 601.833 430.603Q602.292 430.158 602.773 429.738Q603.255 429.318 603.758 428.924Q604.26 428.529 604.783 428.161Q605.305 427.793 605.846 427.452Q606.386 427.112 606.944 426.8Q607.502 426.488 608.075 426.205Q608.648 425.922 609.235 425.67Q609.822 425.417 610.421 425.195Q611.02 424.973 611.63 424.782Q612.24 424.591 612.859 424.433Q613.478 424.274 614.104 424.147Q614.731 424.021 615.363 423.927Q615.995 423.833 616.631 423.771Q617.267 423.71 617.906 423.682Q618.544 423.654 619.183 423.659C625.157 423.65 632.491 425.874 636.832 430.097C638.604 431.591 640.43 433.22 641.544 435.289C643.9 438.897 643.655 444.491 643.915 448.72C645.474 449.956 653.556 450.008 657.476 452.49C661.504 455.041 663.406 459.211 664.344 463.76C665.103 467.441 665.423 471.48 663.215 474.699C656.171 476.583 631.176 475.165 622.194 475.112C607.62 475.026 593.076 475.497 578.502 474.901C577.728 472.896 577.148 470.71 576.852 468.577C576.206 463.925 577.078 459.03 580.051 455.297C583.432 451.052 588.475 449.364 593.666 448.653Z"/>
	<path fill="#2E7F0F" transform="scale(2 2)" d="M636.832 430.097C638.604 431.591 640.43 433.22 641.544 435.289C641.189 437.048 641.53 439.119 640.496 440.659L639.69 440.251C638.943 437.921 637.84 436.624 636.169 434.925C635.398 434.142 635.577 434.611 635.542 433.603L636.722 433.964C637.251 432.751 636.932 431.4 636.832 430.097Z"/>
	<path fill="#FEF4D7" transform="scale(2 2)" d="M393.491 686.867C395.736 681.944 403.897 661.998 407.678 659.726C410.039 658.308 429.971 658.486 433.133 659.391L433.483 660.045C430.805 666.877 419.214 683.274 414.555 690.613Q409.561 699.286 404.426 707.876C404.428 711.819 405.714 732.339 403.61 734.543C400.803 737.482 386.676 735.996 382.518 735.935C382.321 728.08 383.341 719.607 382.278 711.853C381.221 704.14 366.583 681.865 361.482 674.194C358.843 670.224 354.288 664.725 353.064 660.184L353.793 659.175C359.2 658.78 372.502 657.955 377.217 659.584C379.192 660.267 380.682 661.464 381.94 663.121C385.182 667.39 390.771 681.148 393.491 686.867Z"/>
	<defs>
		<linearGradient id="gradient_2" gradientUnits="userSpaceOnUse" x1="314.40646" y1="196.53413" x2="295.54718" y2="174.57622">
			<stop offset="0" stop-color="#2988EA"/>
			<stop offset="1" stop-color="#78D9F4"/>
		</linearGradient>
	</defs>
	<path fill="url(#gradient_2)" transform="scale(2 2)" d="M327.586 169.002C328.877 169.049 329.207 169.027 330.293 169.691C332.34 173.414 330.849 180.836 330.451 184.959C318.328 186.962 293.315 195.885 281.958 200.983C281.055 201.127 280.516 201.125 279.631 200.887C277.537 197.533 278.569 191.589 278.739 187.715C283.9 184.651 290.412 182.807 296.042 180.724Q311.863 174.996 327.586 169.002Z"/>
	<path fill="#004261" transform="scale(2 2)" d="M345.912 176.209C355.813 180.077 366.397 183.222 374.386 190.49C373.596 193.803 372.625 196.964 371.498 200.178C370.959 201.18 371.176 201.092 370.031 201.633C364.511 200.31 351.153 192.859 346.015 189.664Q346.046 182.936 345.912 176.209Z"/>
</svg>
